<svg width="303" height="110" viewBox="0 0 303 110" fill="none" xmlns="http://www.w3.org/2000/svg">
<path d="M241.762 52.5878C242.174 52.5878 242.541 52.6222 242.839 52.6795C243.148 52.7368 243.446 52.8284 243.744 52.9774C243.802 53.0003 243.825 53.0347 243.836 53.0576C243.848 53.0806 243.859 53.1264 243.87 53.2066L244.008 54.4901C244.008 54.4901 243.985 54.5245 243.951 54.5359C243.916 54.5359 243.893 54.5359 243.893 54.5015C243.55 53.3327 242.828 52.7368 241.716 52.7368C241.143 52.7368 240.639 52.8628 240.203 53.1264C239.768 53.39 239.436 53.7567 239.183 54.238C238.943 54.7193 238.828 55.2808 238.828 55.9111C238.828 56.5413 238.954 57.0914 239.218 57.5956C239.481 58.0998 239.837 58.5009 240.284 58.7874C240.742 59.0739 241.235 59.2229 241.762 59.2229C242.289 59.2229 242.77 59.0853 243.126 58.8103C243.481 58.5353 243.767 58.0998 243.985 57.5154C243.985 57.4925 244.008 57.4925 244.042 57.4925C244.077 57.4925 244.088 57.5154 244.088 57.5269L243.985 58.7072C243.974 58.7874 243.962 58.8447 243.939 58.8676C243.939 58.8905 243.905 58.9135 243.859 58.9364C243.492 59.1083 243.148 59.2229 242.828 59.2916C242.507 59.3604 242.14 59.3948 241.75 59.3948C241.006 59.3948 240.341 59.2458 239.768 58.9593C239.195 58.6613 238.737 58.2603 238.404 57.7331C238.083 57.2174 237.923 56.6101 237.923 55.934C237.923 55.2579 238.083 54.6963 238.416 54.1807C238.748 53.665 239.206 53.2639 239.779 52.9889C240.364 52.7024 241.028 52.5534 241.762 52.5534V52.5878Z" fill="#6D3F88"/>
<path d="M251.858 59.1656C251.858 59.1656 251.903 59.1885 251.903 59.2229C251.903 59.2572 251.892 59.2802 251.858 59.2802H250.414C250.253 59.2802 249.932 58.9937 249.451 58.4207C248.981 57.8477 248.408 57.0456 247.744 56.0257C247.549 56.06 247.377 56.0715 247.217 56.0715C247.182 56.0715 247.01 56.0715 246.724 56.0371V58.4207C246.724 58.6384 246.747 58.7989 246.781 58.8905C246.827 58.9937 246.896 59.051 247.022 59.0968C247.148 59.1312 247.331 59.1426 247.595 59.1426C247.618 59.1426 247.629 59.1656 247.629 59.1999C247.629 59.2343 247.629 59.2572 247.595 59.2572C247.365 59.2572 247.194 59.2572 247.079 59.2572H246.323H245.589C245.463 59.2572 245.28 59.2572 245.051 59.2572C245.039 59.2572 245.028 59.2343 245.028 59.1999C245.028 59.1656 245.028 59.1426 245.051 59.1426C245.314 59.1426 245.498 59.1312 245.612 59.0968C245.738 59.051 245.818 58.9937 245.864 58.8905C245.91 58.7874 245.933 58.627 245.933 58.4207V53.5389C245.933 53.3327 245.91 53.1722 245.876 53.0806C245.83 52.9889 245.75 52.9201 245.624 52.8743C245.509 52.8284 245.314 52.817 245.062 52.817C245.039 52.817 245.028 52.7941 245.028 52.7597C245.028 52.7253 245.028 52.7024 245.062 52.7024H245.578C245.876 52.7253 246.116 52.7368 246.311 52.7368C246.46 52.7368 246.586 52.7368 246.724 52.7368C246.861 52.7368 246.976 52.7253 247.079 52.7139C247.343 52.6909 247.583 52.6795 247.801 52.6795C248.362 52.6795 248.798 52.8055 249.107 53.0576C249.417 53.3097 249.577 53.6421 249.577 54.0546C249.577 54.4328 249.463 54.7766 249.245 55.086C249.027 55.3954 248.729 55.636 248.374 55.8194C248.958 56.6674 249.451 57.3435 249.841 57.8133C250.242 58.2832 250.597 58.6384 250.906 58.8562C251.216 59.0739 251.525 59.177 251.823 59.177L251.858 59.1656ZM246.735 55.7965C246.93 55.8194 247.136 55.8308 247.354 55.8308C247.881 55.8308 248.259 55.7162 248.489 55.4756C248.718 55.2464 248.832 54.8797 248.832 54.3755C248.832 53.814 248.718 53.4243 248.477 53.1952C248.248 52.9545 247.904 52.8399 247.469 52.8399C247.205 52.8399 247.01 52.8857 246.907 52.9889C246.792 53.092 246.747 53.2868 246.747 53.5733V55.7965H246.735Z" fill="#6D3F88"/>
<path d="M255.628 59.4062C254.975 59.4062 254.39 59.2573 253.875 58.9478C253.37 58.6384 252.969 58.2259 252.694 57.6988C252.419 57.1831 252.282 56.6101 252.282 55.9913C252.282 55.2693 252.465 54.6391 252.832 54.1234C253.198 53.6077 253.668 53.2181 254.241 52.9545C254.814 52.6909 255.41 52.5649 256.006 52.5649C256.671 52.5649 257.255 52.7253 257.759 53.0347C258.264 53.3441 258.653 53.7567 258.928 54.2724C259.203 54.7766 259.341 55.3266 259.341 55.8996C259.341 56.5413 259.169 57.1372 258.837 57.6758C258.504 58.203 258.046 58.627 257.473 58.9364C256.911 59.2458 256.304 59.3948 255.639 59.3948L255.628 59.4062ZM255.995 59.1885C256.453 59.1885 256.866 59.0739 257.244 58.8333C257.61 58.6041 257.908 58.2603 258.115 57.8134C258.321 57.3664 258.435 56.8393 258.435 56.2205C258.435 55.5673 258.321 54.9828 258.08 54.4672C257.851 53.9515 257.507 53.5504 257.072 53.2639C256.636 52.9774 256.132 52.8285 255.559 52.8285C254.803 52.8285 254.218 53.0806 253.783 53.5848C253.359 54.0775 253.153 54.7651 253.153 55.636C253.153 56.2892 253.267 56.8966 253.508 57.4352C253.749 57.9738 254.081 58.4093 254.505 58.7187C254.94 59.0281 255.422 59.177 255.972 59.177L255.995 59.1885Z" fill="#6D3F88"/>
<path d="M269.54 59.1656C269.54 59.1656 269.586 59.1885 269.586 59.2229C269.586 59.2572 269.574 59.2802 269.54 59.2802H268.096C267.935 59.2802 267.615 58.9937 267.133 58.4207C266.663 57.8477 266.09 57.0456 265.426 56.0257C265.231 56.06 265.059 56.0715 264.899 56.0715C264.864 56.0715 264.692 56.0715 264.406 56.0371V58.4207C264.406 58.6384 264.429 58.7989 264.463 58.8905C264.509 58.9937 264.578 59.051 264.704 59.0968C264.83 59.1312 265.013 59.1426 265.277 59.1426C265.3 59.1426 265.311 59.1656 265.311 59.1999C265.311 59.2343 265.311 59.2572 265.277 59.2572C265.048 59.2572 264.876 59.2572 264.761 59.2572H264.005H263.271C263.145 59.2572 262.962 59.2572 262.733 59.2572C262.721 59.2572 262.71 59.2343 262.71 59.1999C262.71 59.1656 262.71 59.1426 262.733 59.1426C262.996 59.1426 263.18 59.1312 263.294 59.0968C263.42 59.051 263.501 58.9937 263.546 58.8905C263.592 58.7874 263.615 58.627 263.615 58.4207V53.5389C263.615 53.3327 263.592 53.1722 263.558 53.0806C263.512 52.9889 263.432 52.9201 263.306 52.8743C263.191 52.8284 262.996 52.817 262.744 52.817C262.721 52.817 262.71 52.7941 262.71 52.7597C262.71 52.7253 262.71 52.7024 262.744 52.7024H263.26C263.558 52.7253 263.798 52.7368 263.993 52.7368C264.142 52.7368 264.268 52.7368 264.406 52.7368C264.543 52.7368 264.658 52.7253 264.761 52.7139C265.025 52.6909 265.265 52.6795 265.483 52.6795C266.045 52.6795 266.48 52.8055 266.789 53.0576C267.099 53.3097 267.259 53.6421 267.259 54.0546C267.259 54.4328 267.145 54.7766 266.927 55.086C266.709 55.3954 266.411 55.636 266.056 55.8194C266.64 56.6674 267.133 57.3435 267.523 57.8133C267.924 58.2832 268.279 58.6384 268.589 58.8562C268.898 59.0739 269.207 59.177 269.505 59.177L269.54 59.1656ZM264.417 55.7965C264.612 55.8194 264.818 55.8308 265.036 55.8308C265.563 55.8308 265.941 55.7162 266.171 55.4756C266.4 55.2464 266.514 54.8797 266.514 54.3755C266.514 53.814 266.4 53.4243 266.159 53.1952C265.93 52.9545 265.586 52.8399 265.151 52.8399C264.887 52.8399 264.692 52.8857 264.589 52.9889C264.475 53.092 264.429 53.2868 264.429 53.5733V55.7965H264.417Z" fill="#6D3F88"/>
<path d="M276.908 52.7024C276.908 52.7024 276.943 52.7253 276.943 52.7597C276.943 52.7941 276.943 52.817 276.908 52.817C276.622 52.817 276.404 52.9087 276.266 53.0691C276.129 53.241 276.06 53.516 276.06 53.8827V59.4062C276.06 59.4062 276.037 59.4406 276.014 59.4521C275.98 59.4521 275.957 59.4521 275.946 59.4521L271.029 53.5733L270.995 53.5275V58.1113C270.995 58.478 271.064 58.753 271.19 58.9249C271.316 59.0853 271.522 59.177 271.809 59.177C271.832 59.177 271.843 59.1999 271.843 59.2343C271.843 59.2687 271.843 59.2916 271.809 59.2916C271.648 59.2916 271.511 59.2916 271.408 59.2916H270.869H270.307C270.204 59.2916 270.055 59.2916 269.849 59.2916C269.838 59.2916 269.826 59.2687 269.826 59.2343C269.826 59.1999 269.826 59.177 269.849 59.177C270.147 59.177 270.365 59.0968 270.502 58.9249C270.64 58.753 270.709 58.478 270.709 58.1113V53.2524C270.422 52.9774 270.124 52.8284 269.838 52.8284C269.815 52.8284 269.803 52.8055 269.803 52.7711C269.803 52.7368 269.803 52.7138 269.838 52.7138H270.227C270.307 52.7368 270.434 52.7368 270.583 52.7368H271.075C271.075 52.7368 271.201 52.7138 271.293 52.7138C271.35 52.7138 271.385 52.7253 271.419 52.7597C271.442 52.7826 271.488 52.8284 271.545 52.9087C271.625 53.0347 271.706 53.1608 271.797 53.2639L275.785 58.0884V53.9056C275.785 53.5389 275.728 53.2639 275.602 53.092C275.476 52.9201 275.269 52.8399 274.983 52.8399C274.972 52.8399 274.96 52.817 274.96 52.7826C274.96 52.7482 274.96 52.7253 274.983 52.7253H275.396C275.613 52.7482 275.797 52.7597 275.934 52.7597C276.06 52.7597 276.244 52.7597 276.473 52.7368H276.908V52.7024Z" fill="#6D3F88"/>
<path d="M282.753 56.2892C283.222 56.2892 283.578 56.4153 283.807 56.6789C284.036 56.931 284.151 57.2404 284.151 57.6071C284.151 57.9394 284.047 58.2373 283.864 58.5238C283.669 58.7989 283.417 59.0166 283.096 59.177C282.775 59.3375 282.42 59.4177 282.031 59.4177C281.423 59.4177 280.942 59.2114 280.587 58.8103C280.243 58.4092 280.071 57.8363 280.071 57.0914C280.071 56.4382 280.22 55.785 280.518 55.1547C280.816 54.5245 281.251 53.9629 281.813 53.4702C282.386 52.966 283.051 52.5878 283.818 52.3128C283.841 52.3128 283.864 52.3128 283.876 52.3586C283.887 52.393 283.876 52.4159 283.876 52.4274C283.222 52.7368 282.661 53.1264 282.203 53.6192C281.744 54.1119 281.4 54.6391 281.171 55.212C280.942 55.785 280.827 56.358 280.827 56.9195C280.827 57.5727 280.965 58.1228 281.228 58.5582C281.503 58.9937 281.87 59.2114 282.317 59.2114C282.638 59.2114 282.902 59.0968 283.096 58.8562C283.303 58.6155 283.406 58.2946 283.406 57.8936C283.406 57.5154 283.314 57.206 283.142 56.9768C282.959 56.7362 282.707 56.6216 282.374 56.6216C282.203 56.6216 282.042 56.6559 281.893 56.7247C281.744 56.7934 281.572 56.908 281.377 57.0799C281.377 57.0799 281.355 57.0799 281.343 57.0799C281.32 57.0799 281.297 57.0799 281.286 57.0456C281.274 57.0226 281.263 57.0112 281.286 56.9997C281.675 56.5299 282.168 56.2892 282.775 56.2892H282.753Z" fill="#6D3F88"/>
<path d="M285.743 55.9225C285.652 55.9225 285.594 55.9798 285.583 56.083L285.377 57.2175C286.351 57.2175 287.061 57.4123 287.52 57.7675C287.978 58.1228 288.207 58.5926 288.207 59.1999C288.207 59.601 288.104 59.9563 287.898 60.2771C287.692 60.6095 287.382 60.9189 286.935 61.2283C286.5 61.5377 285.927 61.8586 285.205 62.1909C285.205 62.1909 285.159 62.168 285.136 62.145C285.113 62.1107 285.113 62.0877 285.136 62.0763C285.984 61.6523 286.569 61.2168 286.912 60.7814C287.268 60.3459 287.439 59.8761 287.439 59.3833C287.439 58.7989 287.245 58.3519 286.855 58.0196C286.465 57.6988 285.915 57.5383 285.205 57.5383C285.17 57.5383 285.136 57.5383 285.113 57.5039C285.09 57.481 285.09 57.4466 285.09 57.4123L285.434 55.5329C285.434 55.5329 285.446 55.4527 285.468 55.4527C285.48 55.4412 285.514 55.4298 285.572 55.4183C286.454 55.3152 287.05 55.2464 287.348 55.2006C287.657 55.1547 287.852 55.1204 287.932 55.0631C288.024 55.0172 288.081 54.937 288.116 54.8339C288.116 54.8109 288.15 54.811 288.184 54.811C288.23 54.811 288.242 54.8224 288.23 54.8568L288.012 55.7048C287.99 55.785 287.955 55.8423 287.909 55.8538C287.875 55.8767 287.806 55.8881 287.714 55.8881L285.732 55.934L285.743 55.9225Z" fill="#6D3F88"/>
<path d="M290.637 58.1457C290.304 58.1457 290.018 58.0769 289.8 57.9279C289.582 57.779 289.411 57.6071 289.307 57.3893C289.204 57.1716 289.158 56.9424 289.158 56.7132C289.158 56.4038 289.239 56.1173 289.411 55.8652C289.582 55.6131 289.812 55.4298 290.11 55.2923C290.408 55.1433 290.728 55.0745 291.095 55.0745C291.748 55.0745 292.264 55.3037 292.654 55.7392C293.043 56.1861 293.238 56.782 293.238 57.5154C293.238 58.1571 293.089 58.7874 292.78 59.4062C292.482 60.025 292.046 60.5866 291.485 61.0793C290.923 61.5721 290.259 61.9388 289.502 62.168C289.479 62.168 289.456 62.168 289.433 62.1221C289.422 62.0878 289.433 62.0648 289.456 62.0534C290.11 61.7898 290.66 61.4116 291.118 60.9303C291.576 60.4605 291.92 59.9334 292.149 59.3604C292.379 58.7989 292.505 58.2488 292.505 57.7102C292.505 57.3435 292.447 56.9653 292.344 56.5986C292.241 56.2205 292.069 55.9111 291.84 55.6475C291.611 55.3839 291.313 55.2579 290.958 55.2579C290.637 55.2579 290.385 55.3725 290.201 55.5902C290.018 55.8079 289.938 56.1059 289.938 56.484C289.938 56.8622 290.029 57.1945 290.224 57.4466C290.419 57.6988 290.694 57.8133 291.049 57.8133C291.221 57.8133 291.37 57.7904 291.508 57.7331C291.657 57.6758 291.806 57.5727 291.966 57.4352C291.966 57.4352 291.977 57.4352 292 57.4352C292.023 57.4352 292.046 57.4352 292.058 57.4696C292.069 57.5039 292.081 57.5039 292.081 57.5154C291.725 57.9279 291.256 58.1342 290.671 58.1342L290.637 58.1457Z" fill="#6D3F88"/>
<path d="M294.097 59.1083C294.716 58.604 295.186 58.1915 295.507 57.8706C295.839 57.5498 296.069 57.2633 296.218 57.0226C296.366 56.7705 296.435 56.5299 296.435 56.2778C296.435 56.0027 296.344 55.7735 296.183 55.5902C296.023 55.4183 295.805 55.3266 295.53 55.3266C294.991 55.3266 294.59 55.7621 294.338 56.6445C294.338 56.6445 294.327 56.6445 294.292 56.6445C294.235 56.6445 294.201 56.633 294.212 56.5986L294.636 54.9599C294.636 54.9599 294.648 54.937 294.682 54.937C294.705 54.937 294.716 54.937 294.728 54.9599C294.751 54.9599 294.751 54.9714 294.751 54.9828C294.751 55.0058 294.751 55.0516 294.751 55.1089C294.751 55.2235 294.808 55.2693 294.911 55.2693C294.968 55.2693 295.072 55.2464 295.232 55.2006C295.518 55.1089 295.782 55.0516 296 55.0516C296.366 55.0516 296.653 55.1547 296.859 55.3381C297.066 55.5329 297.18 55.785 297.18 56.0944C297.18 56.358 297.088 56.6101 296.928 56.8507C296.768 57.1028 296.538 57.355 296.252 57.6071C295.965 57.8592 295.541 58.203 294.991 58.627C294.968 58.6499 294.968 58.6613 294.968 58.6728C294.98 58.6843 295.003 58.6957 295.037 58.6957C295.759 58.6957 296.263 58.6957 296.573 58.6613C296.882 58.6384 297.1 58.5811 297.237 58.4895C297.386 58.3978 297.478 58.2488 297.524 58.0311C297.524 58.0196 297.535 58.0082 297.57 58.0082C297.616 58.0082 297.638 58.0082 297.638 58.0425L297.478 59.1541C297.478 59.1541 297.478 59.2114 297.444 59.2343C297.421 59.2572 297.398 59.2687 297.375 59.2687H294.166C294.166 59.2687 294.109 59.2458 294.086 59.2114C294.063 59.1656 294.063 59.1312 294.086 59.0968L294.097 59.1083Z" fill="#6D3F88"/>
<path d="M24.4317 45.8038H24.3744C24.1911 45.8038 24.0421 45.7235 23.9275 45.5746C23.8129 45.4256 23.79 45.2537 23.8702 45.0704C24.2026 44.1651 24.5807 43.0764 25.0047 41.8044C25.4287 40.5324 25.8642 39.226 26.2882 37.8967C26.3111 37.7821 26.2882 37.679 26.208 37.6102C26.1507 37.5185 26.0705 37.4841 25.9559 37.4956C24.2026 37.7019 22.5638 37.3581 21.0512 36.4642C20.3636 36.0632 19.7906 35.5475 19.3208 34.9287C18.851 34.2984 18.5072 33.5994 18.3124 32.8316C18.1061 32.0638 18.0488 31.2845 18.1519 30.4938C18.2894 29.2218 18.7707 28.0071 19.5729 26.8497C20.3865 25.6923 21.4866 24.6495 22.8618 23.6983C24.2369 22.7587 25.8527 21.9565 27.7092 21.3262C29.3135 20.7762 30.9522 20.4897 32.6138 20.4324C34.2755 20.3636 35.8684 20.547 37.381 20.9824C38.9051 21.4064 40.2688 22.0482 41.4721 22.9305C42.5263 23.641 43.3514 24.5807 43.9473 25.7381C44.5432 26.8841 44.8297 28.0873 44.8068 29.3364C44.7266 30.872 44.4057 32.293 43.8327 33.5994C43.2712 34.8943 42.5263 36.0975 41.5981 37.1977C40.6584 38.2978 39.6156 39.2948 38.4467 40.1771C37.2779 41.0595 36.0517 41.8388 34.7682 42.5149C33.4848 43.191 32.2013 43.7754 30.9293 44.2453C29.6687 44.7151 28.477 45.0818 27.3425 45.3568C26.2194 45.6319 25.2568 45.7923 24.4432 45.8381L24.4317 45.8038ZM27.5029 37.6446C27.1476 38.7905 26.7924 39.925 26.4142 41.0481C26.0475 42.1826 25.7037 43.2024 25.3829 44.1192C25.3485 44.2223 25.3485 44.3255 25.4173 44.4057C25.5089 44.4974 25.6006 44.5318 25.7037 44.4974C26.7007 44.3369 27.8238 44.0505 29.0729 43.6379C30.3219 43.2368 31.6054 42.7212 32.9233 42.1023C34.2526 41.4721 35.5475 40.7272 36.7737 39.8792C38.0227 39.0197 39.1458 38.0686 40.1657 37.0028C41.1856 35.9257 42.0107 34.7453 42.6409 33.4619C43.2597 32.1669 43.6035 30.7574 43.6494 29.2333C43.6494 28.1332 43.4202 27.1018 42.9045 26.1392C42.4003 25.1652 41.6783 24.3744 40.7616 23.7671C39.6844 22.9535 38.4353 22.3576 37.0258 21.9794C35.6277 21.5898 34.1494 21.4293 32.5909 21.4752C31.0439 21.5325 29.5198 21.819 28.03 22.3461C26.3111 22.9191 24.8214 23.6296 23.5379 24.489C22.2659 25.3485 21.2575 26.2996 20.524 27.331C19.7792 28.3738 19.3437 29.451 19.2177 30.5855C19.1031 31.5596 19.252 32.4878 19.6875 33.3931C20.1115 34.2755 20.7532 34.9745 21.5898 35.4787C23.0795 36.3267 24.6609 36.6132 26.3226 36.3382C26.6205 36.2694 26.8039 36.109 26.8841 35.834C27.2164 34.7568 27.5258 33.7369 27.8238 32.7628C28.1217 31.7888 28.3738 30.9522 28.5801 30.2303C28.603 30.1157 28.5801 30.0125 28.4999 29.9209C28.4082 29.8406 28.3051 29.8292 28.2134 29.8636C27.0904 30.173 26.059 30.024 25.0964 29.3937C24.9703 29.302 24.8787 29.1874 24.8443 29.0385C24.8099 28.878 24.8443 28.752 24.9245 28.6259C25.0047 28.4999 25.1079 28.4082 25.2568 28.3738C25.3943 28.3394 25.5433 28.3509 25.6808 28.4311C26.2653 28.7978 26.8955 28.9353 27.5717 28.8437C28.2592 28.752 28.8322 28.454 29.302 27.9498C29.5083 27.7435 29.7375 27.7092 29.9782 27.8352C30.2417 27.9842 30.3219 28.1905 30.2303 28.477C30.2303 28.5113 30.1386 28.8322 29.9552 29.4739C29.7719 30.0927 29.5312 30.9293 29.2104 31.9607C28.901 33.0035 28.5572 34.138 28.179 35.3871C28.1446 35.5131 28.1675 35.6162 28.2592 35.6965C28.3509 35.7881 28.454 35.8111 28.5686 35.7767C29.8636 35.3298 31.0897 34.7109 32.2471 33.9432C32.4076 33.8286 32.6024 33.8171 32.7972 33.9088C32.992 34.0004 33.0951 34.1609 33.1066 34.3901C33.1066 34.5963 33.0149 34.7568 32.8316 34.8714C31.3648 35.8569 29.7719 36.6018 28.0644 37.0945C27.7665 37.1633 27.5717 37.3466 27.48 37.6446H27.5029Z" fill="#6D3F88"/>
<path d="M61.8242 40.4751C61.9273 40.5897 61.9846 40.7157 61.9846 40.8418C61.9846 41.0022 61.9273 41.1283 61.8127 41.2543C61.0678 41.9877 60.2428 42.6066 59.3375 43.1222C58.4436 43.6265 57.5039 44.0505 56.5299 44.3828C55.5673 44.7266 54.6276 44.9787 53.7223 45.1391C52.817 45.2995 51.9804 45.3683 51.2356 45.3683C50.4219 45.4256 49.6541 45.2766 48.8978 44.9214C48.3936 44.6349 48.0498 44.314 47.8665 43.9702C47.6946 43.615 47.6258 43.2483 47.6487 42.8816C47.6716 42.5034 47.7519 42.1482 47.8779 41.8159C48.0154 41.4835 48.153 41.197 48.2905 40.9564C48.3134 40.9105 48.2905 40.8647 48.2332 40.8418C48.1759 40.8074 48.0842 40.8189 47.9467 40.8991C47.1674 41.3231 46.3309 41.5064 45.46 41.4606C45.0589 41.4721 44.6693 41.3918 44.2911 41.2314C44.1421 41.2658 44.0046 41.2658 43.8671 41.197C43.6379 41.0824 43.5462 40.8991 43.5806 40.647C43.3743 40.3834 43.2254 40.0969 43.1337 39.7761C42.9732 39.1916 42.9847 38.6186 43.191 38.0571C43.3858 37.4841 43.7296 37.0258 44.2223 36.6591C44.8068 36.3038 45.2766 36.3038 45.6204 36.6247C45.6548 36.6591 45.7121 36.7393 45.7808 36.8424C45.8496 36.9456 45.884 37.1174 45.8954 37.3466C45.8954 37.5758 45.861 37.8852 45.735 38.2978C45.6319 38.6989 45.437 39.2375 45.1506 39.8907C45.1162 39.9594 45.1162 40.0511 45.1849 40.1771C45.2651 40.2917 45.3454 40.349 45.46 40.349C46.2736 40.349 47.0414 40.1542 47.7748 39.7417C48.004 39.6156 48.2561 39.5125 48.5197 39.4323C48.7947 39.3406 49.0697 39.4094 49.3791 39.6271C49.6771 39.8563 49.7687 40.1428 49.6656 40.4865C49.5739 40.8074 49.4479 41.1283 49.2989 41.4377C48.978 42.1023 48.8061 42.618 48.7947 42.9962C48.7832 43.3743 49.0124 43.6952 49.4937 43.9702C49.7573 44.1307 50.2042 44.2224 50.8345 44.2567C51.4762 44.2911 52.2325 44.2567 53.092 44.1192C53.9515 43.9817 54.8453 43.764 55.7965 43.4546C56.7361 43.1452 57.6644 42.7441 58.5582 42.2513C59.4635 41.7586 60.2886 41.1512 61.0335 40.4407C61.1366 40.3376 61.2627 40.2803 61.4231 40.2803C61.5835 40.2803 61.7096 40.3376 61.8356 40.4522L61.8242 40.4751ZM44.165 39.3062C44.4057 38.7791 44.6005 38.2176 44.7495 37.6331C44.2338 38.0915 44.039 38.6416 44.165 39.3062Z" fill="#6D3F88"/>
<path d="M78.6237 40.8991C78.7154 41.0022 78.7612 41.1283 78.7612 41.2887C78.7498 41.4491 78.681 41.5752 78.5664 41.6783C78.532 41.7127 78.3143 41.8961 77.9476 42.2055C77.5694 42.5149 77.0767 42.8816 76.4693 43.317C75.8505 43.741 75.1629 44.1421 74.3837 44.5432C73.6159 44.9443 72.8023 45.2766 71.9543 45.5173C71.1063 45.7465 70.2583 45.8381 69.3988 45.7923C68.5393 45.7465 67.7257 45.46 66.9465 44.9328C66.3506 44.5547 65.8807 44.0619 65.5255 43.4546C65.4338 43.2941 65.2734 43.191 65.0556 43.1795C64.8608 43.1795 64.7004 43.2483 64.5858 43.4087C64.2764 43.8786 63.9326 44.314 63.5774 44.738C63.2106 45.162 62.8325 45.4943 62.4429 45.7465C62.0647 45.9986 61.698 46.1246 61.3542 46.1361H61.3313C61.0677 46.1246 60.8385 46.0444 60.6093 45.9069C60.3916 45.7694 60.2312 45.5746 60.1395 45.3225C59.7155 44.2567 59.7842 43.2254 60.3343 42.2284C60.8041 41.2543 61.4459 40.4292 62.2824 39.7531C63.119 39.0656 64.0816 38.5957 65.1473 38.3321C65.3536 38.2863 65.5255 38.3321 65.6744 38.4926C65.8349 38.653 65.8693 38.8364 65.812 39.0426C65.7432 39.2374 65.6057 39.3635 65.3994 39.4093C64.5056 39.6385 63.6919 40.0282 62.9815 40.6011C62.2824 41.1741 61.7324 41.8731 61.3427 42.6982C60.9417 43.3743 60.8729 44.0848 61.125 44.8182C61.2052 44.9672 61.2625 45.036 61.3198 45.036C61.4459 45.1162 61.6407 45.036 61.8813 44.7609C62.1449 44.4974 62.4314 44.1307 62.7523 43.6494C63.0731 43.1681 63.394 42.6524 63.7034 42.068C64.0243 41.4835 64.3108 40.9105 64.5629 40.349C64.6775 40.1084 64.8837 39.9938 65.1702 40.0396C65.4338 40.074 65.5828 40.2344 65.6401 40.5095C65.6401 40.5209 65.663 40.6584 65.7203 40.922C65.7661 41.1856 65.8693 41.5064 66.0068 41.8961C66.1443 42.2742 66.3391 42.6524 66.5912 43.042C66.8319 43.4316 67.1527 43.7525 67.5423 44.0161C68.1841 44.4401 68.8946 44.6693 69.6394 44.6922C70.3843 44.7266 71.1521 44.612 71.9199 44.3599C72.6877 44.0963 73.4096 43.7869 74.0972 43.4202C74.7962 43.042 75.4265 42.6638 75.9651 42.2742C76.5152 41.8731 76.9621 41.5408 77.2944 41.2772C77.6153 41.0022 77.7872 40.8532 77.7986 40.8303C77.9132 40.7386 78.0507 40.7043 78.2112 40.7157C78.3716 40.7157 78.4977 40.773 78.6008 40.8876L78.6237 40.8991Z" fill="#6D3F88"/>
<path d="M104.499 38.0571C104.007 39.0656 103.434 40.0855 102.769 41.0939C102.116 42.0909 101.394 43.042 100.592 43.9359C99.801 44.8297 98.9416 45.6204 98.0248 46.2965C97.1195 46.9841 96.1569 47.5227 95.1484 47.9123C94.14 48.3134 93.0857 48.5197 91.9971 48.5197C91.321 48.5197 90.6563 48.428 89.9917 48.2676C89.327 48.1186 88.754 47.8321 88.2613 47.3966C87.78 46.9726 87.4247 46.4455 87.1955 45.8381C86.9664 45.2193 86.9091 44.5776 87.0236 43.9129C87.1039 43.1108 87.3789 42.2513 87.8373 41.346C88.3186 40.4292 89.0061 39.501 89.9 38.5843C90.8053 37.6446 91.9512 36.7737 93.3493 35.9371C94.7359 35.112 96.3746 34.3672 98.2769 33.714C100.168 33.0493 102.334 32.5451 104.774 32.1784C105.004 32.1555 105.198 32.0752 105.359 31.9263C105.519 31.7658 105.634 31.5825 105.668 31.3648C106.024 29.6 106.081 28.03 105.863 26.6549C105.657 25.2797 105.153 24.2828 104.339 23.6525C104.11 23.4921 103.835 23.4348 103.502 23.515C103.182 23.5952 102.826 23.7442 102.437 23.9619C102.047 24.1911 101.657 24.4203 101.291 24.6609C100.672 25.062 100.065 25.4058 99.4802 25.6923C98.8957 25.9788 98.3342 26.0361 97.8071 25.8642C97.2112 25.6465 96.8101 25.2224 96.6038 24.6036C96.5465 24.4661 96.558 24.3171 96.6267 24.1796C96.6955 24.0421 96.7872 23.939 96.9361 23.8931C97.0737 23.8473 97.2112 23.8473 97.3487 23.9161C97.4862 23.9734 97.5893 24.065 97.6581 24.2026C97.7498 24.4661 97.8414 24.6266 97.9446 24.7068C98.0477 24.7755 98.1165 24.8099 98.1623 24.8214C98.4373 24.9016 98.804 24.8214 99.2739 24.5693C99.7437 24.3057 100.214 24.0307 100.672 23.7327C101.153 23.4233 101.646 23.1368 102.15 22.8732C102.666 22.5982 103.17 22.4378 103.651 22.369C104.144 22.3003 104.591 22.4378 105.015 22.7816C105.703 23.2858 106.207 23.9734 106.539 24.8214C106.872 25.6694 107.066 26.6205 107.101 27.6862C107.135 28.7405 107.066 29.8521 106.872 31.0324C106.837 31.2616 106.894 31.4679 107.066 31.6398C107.227 31.8117 107.422 31.8919 107.651 31.869C108.201 31.8346 108.762 31.8002 109.324 31.7773C109.484 31.7773 109.61 31.8117 109.736 31.9148C109.851 32.018 109.92 32.144 109.931 32.2815C109.931 32.442 109.874 32.568 109.771 32.6711C109.668 32.7857 109.542 32.8545 109.404 32.866C108.625 32.9003 107.857 32.9576 107.112 33.0378C106.642 33.0722 106.344 33.3243 106.218 33.7827C105.794 35.261 105.233 36.6934 104.545 38.08L104.499 38.0571ZM103.502 37.5758C104.018 36.5215 104.477 35.4444 104.866 34.3213C104.946 34.0807 104.889 33.8515 104.706 33.6567C104.534 33.4389 104.316 33.3587 104.064 33.4275C101.864 33.7942 99.9271 34.2755 98.2196 34.8828C96.5121 35.5016 95.0453 36.1778 93.7962 36.9456C92.5471 37.7133 91.5158 38.5155 90.7022 39.3406C89.8885 40.1542 89.2583 40.9678 88.8343 41.77C88.4103 42.5836 88.1581 43.317 88.0894 44.0046C87.9977 44.4974 88.0321 44.9672 88.1811 45.4027C88.3415 45.8496 88.6051 46.2163 88.9603 46.5372C89.3156 46.858 89.7281 47.0758 90.2209 47.1789C91.3324 47.4769 92.4211 47.4998 93.4868 47.2591C94.5526 47.0299 95.5725 46.583 96.5465 45.9527C97.532 45.3225 98.4488 44.5547 99.2968 43.6608C100.156 42.767 100.936 41.7929 101.635 40.7387C102.345 39.6844 102.964 38.6301 103.48 37.5644L103.502 37.5758Z" fill="#6D3F88"/>
<path d="M121.735 40.0282C121.849 40.1427 121.907 40.2803 121.907 40.4407C121.907 40.6011 121.849 40.7272 121.735 40.8074C120.841 41.7127 119.878 42.4347 118.858 42.9732C117.85 43.4889 116.819 43.8671 115.799 44.1077C114.79 44.3369 113.828 44.4286 112.922 44.4171C112.017 44.3942 111.215 44.2796 110.55 44.0848C110.447 44.0619 110.367 44.0848 110.321 44.1765C110.138 44.6005 109.863 44.9557 109.484 45.2079C109.106 45.46 108.682 45.586 108.224 45.5975C107.754 45.5975 107.33 45.4943 106.94 45.2652C106.39 45.0016 106.012 44.612 105.794 44.0734C105.565 43.5233 105.542 42.9732 105.737 42.4232C105.852 41.9304 106.069 41.4606 106.379 41.0251C106.688 40.5782 107.044 40.2115 107.433 39.9365C107.834 39.65 108.212 39.5125 108.568 39.5125H108.602C108.74 39.5125 108.866 39.5698 108.969 39.6844C109.083 39.7875 109.141 39.9136 109.141 40.074C109.141 40.223 109.083 40.3376 108.969 40.4407C108.854 40.5438 108.717 40.6011 108.556 40.6011C108.442 40.6011 108.258 40.7043 108.006 40.9105C107.754 41.1053 107.525 41.3689 107.284 41.6898C107.055 41.9992 106.883 42.343 106.78 42.6982C106.665 43.0076 106.665 43.317 106.803 43.6379C106.929 43.9359 107.147 44.1536 107.445 44.2796C107.685 44.4744 107.972 44.5547 108.281 44.5088C108.591 44.463 108.843 44.3369 109.038 44.0963C109.118 44.0046 109.198 43.9015 109.267 43.764C109.358 43.6379 109.335 43.5233 109.209 43.4316C108.82 43.191 108.568 42.8243 108.465 42.3659C108.361 41.8961 108.43 41.4606 108.694 41.0595C109.026 40.4865 109.335 40.1771 109.633 40.1084C109.92 40.0282 110.161 40.0511 110.355 40.1657C110.642 40.3261 110.814 40.624 110.882 41.0824C110.963 41.5408 110.951 42.0221 110.86 42.5378C110.825 42.6638 110.86 42.8014 110.94 42.9274C111.031 43.042 111.135 43.1222 111.272 43.1451C112.452 43.34 113.633 43.3514 114.802 43.1681C115.971 42.9847 117.082 42.6295 118.136 42.1023C119.191 41.5752 120.13 40.8876 120.978 40.0396C121.081 39.925 121.208 39.8677 121.368 39.8677C121.528 39.8677 121.654 39.925 121.758 40.0396L121.735 40.0282ZM109.737 42.4232C109.805 42.0909 109.817 41.7471 109.794 41.3918C109.782 41.4262 109.759 41.4721 109.714 41.5064C109.679 41.5408 109.656 41.5752 109.633 41.621C109.542 41.7356 109.507 41.8731 109.519 42.0336C109.542 42.194 109.61 42.3201 109.737 42.4232Z" fill="#6D3F88"/>
<path d="M137.663 40.2001C137.766 40.3032 137.824 40.4292 137.824 40.5897C137.824 40.7501 137.778 40.8762 137.686 40.9793C137.067 41.5752 136.357 42.0221 135.566 42.3086C134.776 42.5836 133.95 42.6982 133.114 42.6409C132.266 42.5722 131.464 42.3544 130.719 41.9648C130.467 41.8388 130.215 41.8044 129.963 41.8502C129.699 41.8846 129.481 41.9992 129.286 42.1826C128.622 42.8587 127.957 43.615 127.281 44.4401C127.212 44.5203 127.178 44.6005 127.166 44.6922C127.017 45.5746 126.846 46.4684 126.616 47.3737C126.387 48.279 126.146 49.1729 125.871 50.0438C125.608 50.9262 125.333 51.7283 125.035 52.4617C124.737 53.2066 124.439 53.8254 124.141 54.3296C123.843 54.8453 123.545 55.2006 123.27 55.3839C123.075 55.5214 122.858 55.6017 122.628 55.6017C122.33 55.6017 122.078 55.4871 121.884 55.2693C121.414 54.7766 121.207 54.1921 121.265 53.516C121.288 52.9201 121.425 52.244 121.689 51.4877C121.964 50.7428 122.319 49.9636 122.754 49.127C123.19 48.3134 123.694 47.4769 124.279 46.6174C124.852 45.7808 125.436 44.9672 126.055 44.188C126.124 44.1078 126.158 44.0275 126.169 43.9129C126.25 43.5119 126.295 43.0993 126.307 42.6868C125.963 43.3629 125.493 43.9473 124.909 44.4401C124.324 44.9214 123.648 45.2766 122.903 45.4944C122.583 45.586 122.25 45.586 121.906 45.4944C121.586 45.4027 121.311 45.2308 121.093 44.9901C120.909 44.7839 120.772 44.4859 120.669 44.0963C120.554 43.6952 120.543 43.1795 120.634 42.5378C120.715 41.8961 120.944 41.0824 121.333 40.1084C121.379 39.9709 121.482 39.8677 121.62 39.8219C121.78 39.7531 121.918 39.7531 122.067 39.799C122.204 39.8563 122.308 39.9479 122.353 40.0855C122.399 40.2344 122.399 40.3719 122.353 40.5095C121.987 41.4148 121.769 42.1367 121.712 42.6524C121.643 43.1681 121.643 43.5577 121.712 43.7983C121.792 44.0275 121.849 44.188 121.906 44.2682C122.113 44.463 122.353 44.5088 122.628 44.4057C123.213 44.2453 123.706 44.0046 124.107 43.6608C124.519 43.3056 124.852 42.9274 125.115 42.5149C125.39 42.0909 125.596 41.6783 125.757 41.2887C125.917 40.8876 126.02 40.5438 126.089 40.2803C126.158 40.0052 126.181 39.8677 126.181 39.8677C126.227 39.5927 126.399 39.4437 126.662 39.3979C126.949 39.375 127.143 39.4896 127.247 39.7646C127.384 40.1886 127.464 40.6241 127.464 41.0481C127.464 41.3116 127.602 41.4721 127.854 41.5523C128.072 41.6554 128.278 41.621 128.461 41.4377C128.839 41.0481 129.206 40.6928 129.55 40.3719C129.768 40.1771 129.997 40.1771 130.249 40.349C130.994 40.9105 131.693 41.2658 132.346 41.4148C133.022 41.5752 133.618 41.6096 134.157 41.5294C134.684 41.4491 135.154 41.3116 135.555 41.1054C135.956 40.8991 136.265 40.7043 136.494 40.5209C136.724 40.3376 136.85 40.2459 136.861 40.2344C136.976 40.1198 137.113 40.0625 137.274 40.0625C137.434 40.0625 137.56 40.1198 137.663 40.223V40.2001ZM125.562 47.0185C125.596 46.9383 125.596 46.8924 125.539 46.858C125.482 46.8466 125.447 46.881 125.402 46.9497C124.829 47.7748 124.313 48.5999 123.866 49.4021C123.419 50.2157 123.064 50.9835 122.8 51.6825C122.537 52.393 122.399 53.0118 122.388 53.516C122.388 53.7223 122.411 53.9286 122.445 54.1234C122.479 54.3182 122.548 54.4213 122.64 54.4557C122.743 54.4557 122.858 54.364 122.995 54.1692C123.133 53.9629 123.327 53.6077 123.557 53.1149C124.45 51.1554 125.115 49.127 125.562 47.0185Z" fill="#6D3F88"/>
<path d="M154.486 40.7501C154.6 40.8647 154.646 41.0022 154.646 41.1626C154.646 41.3231 154.577 41.4491 154.451 41.5294C152.721 42.9733 150.796 44.0848 148.687 44.8641C146.567 45.6433 144.39 46.0444 142.121 46.0559C141.021 46.0559 139.921 45.9642 138.832 45.7694C137.938 45.6089 137.262 45.3798 136.827 45.0474C136.391 44.7266 136.093 44.3828 135.956 44.0161C135.795 43.6608 135.727 43.34 135.727 43.0764C135.727 42.5263 135.887 41.9648 136.196 41.4033C136.506 40.8532 136.907 40.3261 137.388 39.8448C137.881 39.3635 138.397 38.9624 138.947 38.6416C139.497 38.3207 139.99 38.1144 140.448 38.0342C141.307 37.7935 142.075 37.9311 142.763 38.4582C143.347 39.0197 143.634 39.6958 143.634 40.498C143.622 40.6584 143.565 40.7845 143.462 40.8876C143.359 40.9908 143.233 41.0481 143.072 41.0481C142.912 41.0481 142.786 41.0022 142.66 40.8876C142.556 40.773 142.499 40.6355 142.499 40.4751C142.499 40.0282 142.35 39.6385 142.029 39.3062C141.605 39.0197 141.135 38.951 140.643 39.1114C140.253 39.1916 139.829 39.3635 139.394 39.6385C138.97 39.9136 138.557 40.2459 138.167 40.6355C137.778 41.0251 137.457 41.4377 137.193 41.8617C136.941 42.2857 136.827 42.6982 136.827 43.0649C136.827 43.8786 137.572 44.4057 139.027 44.6578C140.436 44.9214 141.777 45.0131 143.061 44.9328C144.344 44.8412 145.524 44.6463 146.602 44.3484C147.69 44.039 148.676 43.6837 149.547 43.2827C150.418 42.8816 151.151 42.4805 151.77 42.0909C152.389 41.7012 152.87 41.3804 153.191 41.1168C153.523 40.8532 153.707 40.7272 153.718 40.7043C153.833 40.6011 153.97 40.5553 154.131 40.5668C154.291 40.5668 154.406 40.6241 154.497 40.7386L154.486 40.7501Z" fill="#6D3F88"/>
<path d="M171.366 40.5897C171.457 40.7043 171.492 40.8418 171.48 41.0022C171.469 41.1627 171.389 41.2887 171.263 41.3918C171.205 41.4262 170.953 41.621 170.506 41.9534C170.048 42.2742 169.441 42.6753 168.673 43.1452C167.916 43.6035 167.034 44.0505 166.026 44.5088C165.029 44.9558 163.951 45.3225 162.817 45.6204C161.671 45.9184 160.502 46.0673 159.287 46.0673C157.844 46.0673 156.457 45.8267 155.116 45.2881C154.383 44.9901 153.879 44.6464 153.581 44.2567C153.283 43.8556 153.111 43.466 153.076 43.0879C153.042 42.6982 153.042 42.3774 153.099 42.1138C153.225 41.5867 153.477 41.0824 153.844 40.5897C154.199 40.0969 154.635 39.65 155.128 39.2604C155.632 38.8707 156.136 38.5728 156.652 38.3665C157.167 38.1603 157.649 38.0686 158.073 38.0915C158.451 38.0915 158.772 38.229 159.047 38.504C159.322 38.7676 159.471 39.0999 159.517 39.501C159.517 39.7302 159.471 40.0052 159.345 40.3376C159.219 40.6584 158.886 40.9908 158.371 41.3345C157.167 42.0909 155.85 42.4232 154.417 42.343C154.348 42.343 154.291 42.343 154.245 42.3774C154.176 42.4117 154.154 42.469 154.165 42.5378C154.154 42.6639 154.165 42.8357 154.199 43.042C154.245 43.2368 154.371 43.4431 154.566 43.6494C154.761 43.8556 155.093 44.0619 155.563 44.2567C156.526 44.6578 157.511 44.8985 158.52 44.9558C159.528 45.0131 160.525 44.9558 161.499 44.7609C162.473 44.5661 163.401 44.314 164.307 43.9817C165.201 43.6494 166.026 43.2827 166.782 42.893C167.527 42.492 168.191 42.1138 168.764 41.7585C169.337 41.4033 169.784 41.1168 170.105 40.8876C170.426 40.647 170.587 40.5209 170.587 40.5209C170.701 40.4178 170.839 40.3834 170.999 40.4063C171.137 40.4178 171.263 40.4865 171.366 40.6011V40.5897ZM154.898 41.0366C154.738 41.2658 154.761 41.3804 154.956 41.4033C155.151 41.4148 155.426 41.3689 155.769 41.2658C156.125 41.1512 156.48 41.0137 156.858 40.8533C157.236 40.6928 157.534 40.5324 157.752 40.4063C158.187 40.1084 158.394 39.8333 158.371 39.5927C158.359 39.4323 158.313 39.3406 158.256 39.3062C158.187 39.2604 158.096 39.226 157.981 39.2145C157.523 39.1802 156.996 39.3291 156.4 39.6844C155.815 40.0396 155.311 40.498 154.876 41.0481L154.898 41.0366Z" fill="#6D3F88"/>
<path d="M197.047 38.0571C196.554 39.0656 195.981 40.0855 195.316 41.0939C194.663 42.0909 193.941 43.042 193.139 43.9359C192.348 44.8297 191.489 45.6204 190.572 46.2965C189.667 46.9841 188.704 47.5227 187.696 47.9123C186.687 48.3134 185.633 48.5197 184.544 48.5197C183.868 48.5197 183.204 48.428 182.539 48.2676C181.874 48.1186 181.301 47.8321 180.809 47.3966C180.327 46.9726 179.972 46.4455 179.743 45.8381C179.514 45.2193 179.456 44.5776 179.571 43.9129C179.651 43.1108 179.926 42.2513 180.385 41.346C180.866 40.4292 181.553 39.501 182.447 38.5843C183.353 37.6446 184.499 36.7737 185.897 35.9371C187.283 35.112 188.922 34.3672 190.824 33.714C192.715 33.0493 194.881 32.5451 197.322 32.1784C197.551 32.1555 197.746 32.0752 197.906 31.9263C198.067 31.7658 198.181 31.5825 198.216 31.3648C198.571 29.6 198.628 28.03 198.41 26.6549C198.204 25.2797 197.7 24.2828 196.886 23.6525C196.657 23.4921 196.382 23.4348 196.05 23.515C195.729 23.5952 195.374 23.7442 194.984 23.9619C194.594 24.1911 194.205 24.4203 193.838 24.6609C193.219 25.062 192.612 25.4058 192.027 25.6923C191.443 25.9788 190.881 26.0361 190.354 25.8642C189.758 25.6465 189.357 25.2224 189.151 24.6036C189.094 24.4661 189.105 24.3171 189.174 24.1796C189.243 24.0421 189.334 23.939 189.483 23.8931C189.621 23.8473 189.758 23.8473 189.896 23.9161C190.033 23.9734 190.137 24.065 190.205 24.2026C190.297 24.4661 190.389 24.6266 190.492 24.7068C190.595 24.7755 190.664 24.8099 190.71 24.8214C190.985 24.9016 191.351 24.8214 191.821 24.5693C192.291 24.3057 192.761 24.0307 193.219 23.7327C193.701 23.4233 194.193 23.1368 194.697 22.8732C195.213 22.5982 195.717 22.4378 196.199 22.369C196.691 22.3003 197.138 22.4378 197.562 22.7816C198.25 23.2858 198.754 23.9734 199.087 24.8214C199.419 25.6694 199.614 26.6205 199.648 27.6862C199.682 28.7405 199.614 29.8521 199.419 31.0324C199.384 31.2616 199.442 31.4679 199.614 31.6398C199.774 31.8117 199.969 31.8919 200.198 31.869C200.748 31.8346 201.31 31.8002 201.871 31.7773C202.032 31.7773 202.158 31.8117 202.284 31.9148C202.398 32.018 202.467 32.144 202.479 32.2815C202.479 32.442 202.421 32.568 202.318 32.6711C202.215 32.7857 202.089 32.8545 201.951 32.866C201.172 32.9003 200.404 32.9576 199.659 33.0378C199.19 33.0722 198.892 33.3243 198.766 33.7827C198.342 35.261 197.78 36.6934 197.093 38.08L197.047 38.0571ZM196.05 37.5758C196.565 36.5215 197.024 35.4444 197.413 34.3213C197.494 34.0807 197.436 33.8515 197.253 33.6567C197.081 33.4389 196.863 33.3587 196.611 33.4275C194.411 33.7942 192.474 34.2755 190.767 34.8828C189.059 35.5016 187.593 36.1778 186.344 36.9456C185.094 37.7133 184.063 38.5155 183.249 39.3406C182.436 40.1542 181.806 40.9678 181.382 41.77C180.958 42.5836 180.705 43.317 180.637 44.0046C180.545 44.4974 180.579 44.9672 180.728 45.4027C180.889 45.8496 181.152 46.2163 181.508 46.5372C181.863 46.858 182.275 47.0758 182.768 47.1789C183.88 47.4769 184.968 47.4998 186.034 47.2591C187.1 47.0299 188.12 46.583 189.094 45.9527C190.079 45.3225 190.996 44.5547 191.844 43.6608C192.704 42.767 193.483 41.7929 194.182 40.7387C194.892 39.6844 195.511 38.6301 196.027 37.5644L196.05 37.5758Z" fill="#6D3F88"/>
<path d="M214.282 40.0282C214.396 40.1427 214.454 40.2803 214.454 40.4407C214.454 40.6011 214.396 40.7272 214.282 40.8074C213.388 41.7127 212.425 42.4347 211.405 42.9732C210.397 43.4889 209.366 43.8671 208.346 44.1077C207.337 44.3369 206.375 44.4286 205.469 44.4171C204.564 44.3942 203.762 44.2796 203.097 44.0848C202.994 44.0619 202.914 44.0848 202.868 44.1765C202.685 44.6005 202.41 44.9557 202.032 45.2079C201.653 45.46 201.229 45.586 200.771 45.5975C200.301 45.5975 199.877 45.4943 199.488 45.2652C198.938 45.0016 198.559 44.612 198.342 44.0734C198.112 43.5233 198.089 42.9732 198.284 42.4232C198.399 41.9304 198.617 41.4606 198.926 41.0251C199.235 40.5782 199.591 40.2115 199.98 39.9365C200.381 39.65 200.76 39.5125 201.115 39.5125H201.149C201.287 39.5125 201.413 39.5698 201.516 39.6844C201.63 39.7875 201.688 39.9136 201.688 40.074C201.688 40.223 201.63 40.3376 201.516 40.4407C201.401 40.5438 201.264 40.6011 201.103 40.6011C200.989 40.6011 200.805 40.7043 200.553 40.9105C200.301 41.1053 200.072 41.3689 199.831 41.6898C199.602 41.9992 199.43 42.343 199.327 42.6982C199.213 43.0076 199.213 43.317 199.35 43.6379C199.476 43.9359 199.694 44.1536 199.992 44.2796C200.232 44.4744 200.519 44.5547 200.828 44.5088C201.138 44.463 201.39 44.3369 201.585 44.0963C201.665 44.0046 201.745 43.9015 201.814 43.764C201.906 43.6379 201.883 43.5233 201.757 43.4316C201.367 43.191 201.115 42.8243 201.012 42.3659C200.909 41.8961 200.977 41.4606 201.241 41.0595C201.573 40.4865 201.883 40.1771 202.181 40.1084C202.467 40.0282 202.708 40.0511 202.902 40.1657C203.189 40.3261 203.361 40.624 203.43 41.0824C203.51 41.5408 203.498 42.0221 203.407 42.5378C203.372 42.6638 203.407 42.8014 203.487 42.9274C203.579 43.042 203.682 43.1222 203.819 43.1451C205 43.34 206.18 43.3514 207.349 43.1681C208.518 42.9847 209.629 42.6295 210.684 42.1023C211.738 41.5752 212.677 40.8876 213.525 40.0396C213.629 39.925 213.755 39.8677 213.915 39.8677C214.076 39.8677 214.202 39.925 214.305 40.0396L214.282 40.0282ZM202.284 42.4232C202.352 42.0909 202.364 41.7471 202.341 41.3918C202.33 41.4262 202.307 41.4721 202.261 41.5064C202.226 41.5408 202.203 41.5752 202.181 41.621C202.089 41.7356 202.054 41.8731 202.066 42.0336C202.089 42.194 202.158 42.3201 202.284 42.4232Z" fill="#6D3F88"/>
<path d="M231.735 40.4751C231.838 40.5897 231.895 40.7157 231.895 40.8418C231.895 41.0022 231.838 41.1283 231.723 41.2543C230.978 41.9877 230.153 42.6066 229.248 43.1222C228.354 43.6265 227.414 44.0505 226.44 44.3828C225.478 44.7266 224.538 44.9787 223.633 45.1391C222.727 45.2995 221.891 45.3683 221.146 45.3683C220.332 45.4256 219.565 45.2766 218.808 44.9214C218.304 44.6349 217.96 44.314 217.777 43.9702C217.605 43.615 217.536 43.2483 217.559 42.8816C217.582 42.5034 217.662 42.1482 217.788 41.8159C217.926 41.4835 218.063 41.197 218.201 40.9564C218.224 40.9105 218.201 40.8647 218.144 40.8418C218.086 40.8074 217.995 40.8189 217.857 40.8991C217.078 41.3231 216.241 41.5064 215.37 41.4606C214.969 41.4721 214.58 41.3918 214.201 41.2314C214.053 41.2658 213.915 41.2658 213.777 41.197C213.548 41.0824 213.457 40.8991 213.491 40.647C213.285 40.3834 213.136 40.0969 213.044 39.7761C212.884 39.1916 212.895 38.6186 213.101 38.0571C213.296 37.4841 213.64 37.0258 214.133 36.6591C214.717 36.3038 215.187 36.3038 215.531 36.6247C215.565 36.6591 215.622 36.7393 215.691 36.8424C215.76 36.9456 215.794 37.1174 215.806 37.3466C215.806 37.5758 215.771 37.8852 215.645 38.2978C215.542 38.6989 215.347 39.2375 215.061 39.8907C215.027 39.9594 215.027 40.0511 215.095 40.1771C215.176 40.2917 215.256 40.349 215.37 40.349C216.184 40.349 216.952 40.1542 217.685 39.7417C217.914 39.6156 218.166 39.5125 218.43 39.4323C218.705 39.3406 218.98 39.4094 219.29 39.6271C219.587 39.8563 219.679 40.1428 219.576 40.4865C219.484 40.8074 219.358 41.1283 219.209 41.4377C218.888 42.1023 218.717 42.618 218.705 42.9962C218.694 43.3743 218.923 43.6952 219.404 43.9702C219.668 44.1307 220.115 44.2224 220.745 44.2567C221.387 44.2911 222.143 44.2567 223.002 44.1192C223.862 43.9817 224.756 43.764 225.707 43.4546C226.647 43.1452 227.575 42.7441 228.469 42.2513C229.374 41.7586 230.199 41.1512 230.944 40.4407C231.047 40.3376 231.173 40.2803 231.333 40.2803C231.494 40.2803 231.62 40.3376 231.746 40.4522L231.735 40.4751ZM214.075 39.3062C214.316 38.7791 214.511 38.2176 214.66 37.6331C214.144 38.0915 213.949 38.6416 214.075 39.3062Z" fill="#6D3F88"/>
<path d="M250.86 41.197C250.964 41.3116 251.021 41.4491 251.021 41.5867C251.021 41.7242 250.964 41.8617 250.849 41.9763C250.012 42.7899 249.107 43.5004 248.099 44.0734C247.102 44.6463 246.093 45.0933 245.085 45.4141C244.076 45.735 243.114 45.9413 242.22 46.0215C241.326 46.1017 240.57 46.0444 239.94 45.8496C239.172 45.586 238.507 45.1735 237.957 44.6005C237.395 44.0161 237.006 43.3514 236.765 42.5951C236.708 42.469 236.616 42.4003 236.49 42.3774C236.364 42.3774 236.261 42.4117 236.181 42.5149C234.496 44.9214 233.087 46.1132 231.975 46.1132C231.895 46.1132 231.826 46.1132 231.757 46.0903C231.414 46.0559 231.116 45.9298 230.864 45.7235C230.6 45.5173 230.417 45.2537 230.302 44.9214C230.142 44.4974 230.084 44.0046 230.142 43.466C230.21 42.916 230.336 42.3888 230.531 41.8846C230.715 41.3918 230.909 41.0137 231.139 40.7387C231.757 40.0282 232.33 39.6042 232.835 39.4781C233.35 39.352 233.774 39.3406 234.118 39.4437C234.92 39.6958 235.436 40.223 235.654 41.0366C235.654 41.1856 235.619 41.3231 235.539 41.4491C235.447 41.5752 235.321 41.6554 235.172 41.6669C235.023 41.7013 234.897 41.6669 234.783 41.5752C234.668 41.4835 234.588 41.3689 234.565 41.22C234.405 40.8647 234.13 40.6126 233.728 40.498C233.419 40.4292 233.11 40.5209 232.789 40.7501C232.479 40.9793 232.204 41.2085 231.987 41.4721C231.345 42.4232 231.127 43.4546 231.322 44.5661C231.414 44.8526 231.608 45.0016 231.906 45.0131C232.17 45.0474 232.605 44.8182 233.236 44.2911C233.866 43.764 234.657 42.8014 235.596 41.4262C235.734 41.2085 235.883 40.9908 236.02 40.7616C236.181 40.5209 236.238 40.2459 236.192 39.9479C236.135 39.0312 236.158 38.103 236.25 37.1862C236.341 36.0975 236.525 35.0089 236.811 33.9202C237.098 32.8316 237.453 31.8231 237.877 30.9064C238.301 29.9896 238.782 29.2447 239.321 28.6718C239.848 28.0873 240.409 27.755 240.994 27.6748C241.418 27.5946 241.739 27.7435 241.968 28.0988C242.174 28.3967 242.243 28.878 242.163 29.5198C242.082 30.1615 241.899 30.9064 241.613 31.7544C241.326 32.6138 240.971 33.5306 240.558 34.5047C240.134 35.4673 239.687 36.4299 239.172 37.4039C238.679 38.378 238.175 39.3062 237.671 40.1657C237.476 40.4636 237.418 40.7959 237.499 41.1627C237.659 41.9763 237.934 42.7097 238.358 43.3858C238.782 44.0619 239.412 44.5318 240.249 44.8068C240.73 44.9558 241.36 45.0016 242.14 44.9443C242.919 44.8755 243.756 44.7037 244.672 44.3942C245.589 44.0963 246.517 43.6837 247.457 43.1681C248.397 42.6409 249.256 41.9763 250.07 41.1856C250.173 41.0824 250.299 41.0251 250.459 41.0251C250.62 41.0251 250.746 41.0824 250.849 41.197H250.86ZM237.35 37.3008C237.338 37.4154 237.327 37.5414 237.327 37.6675C237.327 37.7821 237.373 37.8623 237.418 37.8852C237.464 37.8967 237.544 37.8165 237.636 37.6331C238.702 35.7423 239.516 34.0921 240.088 32.6826C240.673 31.2731 241.005 30.1615 241.097 29.3479C241.097 29.1874 241.051 29.0728 240.925 28.9926C240.799 28.9239 240.673 28.9353 240.57 29.0156C240.123 29.3364 239.676 29.9094 239.229 30.7116C238.771 31.5252 238.37 32.4878 238.026 33.6337C237.682 34.7797 237.464 35.9944 237.35 37.2893V37.3008Z" fill="#6D3F88"/>
<path d="M267.798 40.8991C267.889 41.0022 267.935 41.1283 267.935 41.2887C267.924 41.4491 267.855 41.5752 267.74 41.6783C267.706 41.7127 267.488 41.8961 267.122 42.2055C266.743 42.5149 266.251 42.8816 265.643 43.317C265.024 43.741 264.337 44.1421 263.558 44.5432C262.79 44.9443 261.976 45.2766 261.128 45.5173C260.28 45.7465 259.432 45.8381 258.573 45.7923C257.713 45.7465 256.9 45.46 256.12 44.9328C255.525 44.5547 255.055 44.0619 254.699 43.4546C254.608 43.2941 254.447 43.191 254.23 43.1795C254.035 43.1795 253.874 43.2483 253.76 43.4087C253.45 43.8786 253.107 44.314 252.751 44.738C252.385 45.162 252.006 45.4943 251.617 45.7465C251.239 45.9986 250.872 46.1246 250.528 46.1361H250.505C250.242 46.1246 250.012 46.0444 249.783 45.9069C249.566 45.7694 249.405 45.5746 249.313 45.3225C248.889 44.2567 248.958 43.2254 249.508 42.2284C249.978 41.2543 250.62 40.4292 251.456 39.7531C252.293 39.0656 253.256 38.5957 254.321 38.3321C254.528 38.2863 254.699 38.3321 254.848 38.4926C255.009 38.653 255.043 38.8364 254.986 39.0426C254.917 39.2374 254.78 39.3635 254.573 39.4093C253.68 39.6385 252.866 40.0282 252.155 40.6011C251.456 41.1741 250.906 41.8731 250.517 42.6982C250.116 43.3743 250.047 44.0848 250.299 44.8182C250.379 44.9672 250.436 45.036 250.494 45.036C250.62 45.1162 250.815 45.036 251.055 44.7609C251.319 44.4974 251.605 44.1307 251.926 43.6494C252.247 43.1681 252.568 42.6524 252.877 42.068C253.198 41.4835 253.485 40.9105 253.737 40.349C253.851 40.1084 254.058 39.9938 254.344 40.0396C254.608 40.074 254.757 40.2344 254.814 40.5095C254.814 40.5209 254.837 40.6584 254.894 40.922C254.94 41.1856 255.043 41.5064 255.181 41.8961C255.318 42.2742 255.513 42.6524 255.765 43.042C256.006 43.4316 256.327 43.7525 256.716 44.0161C257.358 44.4401 258.069 44.6693 258.813 44.6922C259.558 44.7266 260.326 44.612 261.094 44.3599C261.862 44.0963 262.584 43.7869 263.271 43.4202C263.97 43.042 264.6 42.6638 265.139 42.2742C265.689 41.8731 266.136 41.5408 266.468 41.2772C266.789 41.0022 266.961 40.8532 266.973 40.8303C267.087 40.7386 267.225 40.7043 267.385 40.7157C267.546 40.7157 267.672 40.773 267.775 40.8876L267.798 40.8991Z" fill="#6D3F88"/>
<path d="M285.697 40.7616C285.812 40.8647 285.869 40.9908 285.869 41.1512C285.869 41.3116 285.835 41.4377 285.709 41.5408C285.675 41.5981 285.526 41.7585 285.239 42.0221C284.953 42.2971 284.563 42.6295 284.093 43.0191C283.612 43.4087 283.05 43.7983 282.42 44.188C281.778 44.5776 281.091 44.9099 280.357 45.1849C279.624 45.4485 278.868 45.6089 278.077 45.6548C277.298 45.6892 276.518 45.5517 275.739 45.2308C274.639 44.6807 273.78 43.8556 273.172 42.7784C273.081 42.6753 272.954 42.5034 272.806 42.2742C272.645 42.0336 272.439 41.919 272.187 41.919C272.061 41.919 271.866 41.9534 271.625 42.0336C271.373 42.1138 271.064 42.2628 270.674 42.5034C270.284 42.7441 269.815 43.0993 269.276 43.5921C268.737 44.0848 268.119 44.7495 267.408 45.5746C267.225 45.7808 266.996 45.8267 266.732 45.7121C266.468 45.586 266.377 45.3798 266.457 45.0933L267.511 40.4407C267.534 40.3032 267.614 40.1886 267.74 40.1084C267.878 40.0167 268.027 39.9938 268.164 40.0282C268.325 40.0625 268.439 40.1428 268.52 40.2803C268.6 40.4063 268.623 40.5438 268.6 40.6928L268.119 42.7784C268.107 42.8587 268.119 42.916 268.199 42.9503C268.279 42.9847 268.336 42.9618 268.394 42.916C269.964 41.4377 271.281 40.7272 272.347 40.7959C272.794 40.8303 273.184 41.0022 273.493 41.346C273.734 41.6096 273.951 41.8846 274.135 42.1825C274.616 43.0535 275.292 43.7181 276.163 44.188C276.839 44.4745 277.515 44.589 278.203 44.5432C278.902 44.4745 279.578 44.3255 280.231 44.0734C280.873 43.8098 281.48 43.5119 282.042 43.1566C282.615 42.8014 283.108 42.4347 283.543 42.0909C283.979 41.7356 284.322 41.4262 284.552 41.197C284.792 40.9564 284.93 40.8189 284.941 40.8074C285.033 40.6928 285.159 40.6355 285.308 40.6355C285.457 40.6355 285.594 40.6928 285.72 40.7959L285.697 40.7616Z" fill="#6D3F88"/>
<path d="M302.531 40.8991C302.623 41.0022 302.669 41.1283 302.669 41.2887C302.658 41.4491 302.589 41.5752 302.474 41.6783C302.44 41.7127 302.222 41.8961 301.855 42.2055C301.477 42.5149 300.984 42.8816 300.377 43.317C299.758 43.741 299.071 44.1421 298.291 44.5432C297.524 44.9443 296.71 45.2766 295.862 45.5173C295.014 45.7465 294.166 45.8381 293.307 45.7923C292.447 45.7465 291.633 45.46 290.854 44.9328C290.258 44.5547 289.788 44.0619 289.433 43.4546C289.342 43.2941 289.181 43.191 288.963 43.1795C288.769 43.1795 288.608 43.2483 288.494 43.4087C288.184 43.8786 287.84 44.314 287.485 44.738C287.118 45.162 286.74 45.4943 286.351 45.7465C285.972 45.9986 285.606 46.1246 285.262 46.1361H285.239C284.975 46.1246 284.746 46.0444 284.517 45.9069C284.299 45.7694 284.139 45.5746 284.047 45.3225C283.623 44.2567 283.692 43.2254 284.242 42.2284C284.712 41.2543 285.354 40.4292 286.19 39.7531C287.027 39.0656 287.989 38.5957 289.055 38.3321C289.261 38.2863 289.433 38.3321 289.582 38.4926C289.743 38.653 289.777 38.8364 289.72 39.0426C289.651 39.2374 289.513 39.3635 289.307 39.4093C288.413 39.6385 287.6 40.0282 286.889 40.6011C286.19 41.1741 285.64 41.8731 285.251 42.6982C284.849 43.3743 284.781 44.0848 285.033 44.8182C285.113 44.9672 285.17 45.036 285.228 45.036C285.354 45.1162 285.548 45.036 285.789 44.7609C286.053 44.4974 286.339 44.1307 286.66 43.6494C286.981 43.1681 287.302 42.6524 287.611 42.068C287.932 41.4835 288.219 40.9105 288.471 40.349C288.585 40.1084 288.791 39.9938 289.078 40.0396C289.342 40.074 289.491 40.2344 289.548 40.5095C289.548 40.5209 289.571 40.6584 289.628 40.922C289.674 41.1856 289.777 41.5064 289.915 41.8961C290.052 42.2742 290.247 42.6524 290.499 43.042C290.74 43.4316 291.06 43.7525 291.45 44.0161C292.092 44.4401 292.802 44.6693 293.547 44.6922C294.292 44.7266 295.06 44.612 295.828 44.3599C296.595 44.0963 297.317 43.7869 298.005 43.4202C298.704 43.042 299.334 42.6638 299.873 42.2742C300.423 41.8731 300.87 41.5408 301.202 41.2772C301.523 41.0022 301.695 40.8532 301.706 40.8303C301.821 40.7386 301.958 40.7043 302.119 40.7157C302.279 40.7157 302.405 40.773 302.509 40.8876L302.531 40.8991Z" fill="#6D3F88"/>
<path d="M23.5723 86.0381C23.5723 93.5556 22.8732 99.0218 21.4752 102.437C20.0886 105.863 18.0029 107.571 15.2068 107.571C14.1869 107.571 13.3847 107.296 12.7888 106.746C12.2044 106.207 11.5283 105.302 10.772 104.041C9.92395 102.597 9.07595 101.497 8.22794 100.741C7.37994 99.9844 6.21106 99.6062 4.68695 99.6062C3.16283 99.6062 2.10855 100.042 1.26055 100.924C0.412543 101.818 0 102.941 0 104.293C0 106.058 0.870924 107.456 2.60131 108.464C4.3317 109.484 6.68091 110 9.63746 110C17.1549 110 22.9191 107.502 26.9184 102.517C30.9293 97.532 32.9461 90.7824 32.9461 82.2565V54.1921H23.5608V86.0496L23.5723 86.0381Z" fill="#E7C0AE"/>
<path d="M32.9575 10.5198C32.9575 7.98729 33.1638 6.10793 33.5878 4.89322C34.0118 3.66705 34.8254 2.79612 36.0631 2.2919C37.2892 1.77622 39.2488 1.52412 41.9647 1.52412C42.1366 1.52412 42.2168 1.27201 42.2168 0.767786C42.2168 0.263567 42.1366 0.0114572 41.9647 0.0114572L36.5215 0.137512C33.1409 0.309405 30.3448 0.389622 28.156 0.389622C25.9672 0.389622 22.7929 0.309405 18.8967 0.137512L11.4251 0.0114572C11.2532 0.0114572 11.173 0.263567 11.173 0.767786C11.173 1.27201 11.2532 1.52412 11.4251 1.52412C14.9661 1.52412 17.5674 1.76477 19.2176 2.22315C20.8677 2.69299 22.0022 3.51807 22.6325 4.6984C23.2628 5.87874 23.5836 7.73518 23.5836 10.2677V18.1061H32.969V10.5313L32.9575 10.5198Z" fill="#E7C0AE"/>
<path d="M83.1389 0L77.6956 0.126055C74.3151 0.297948 71.519 0.378164 69.3302 0.378164C67.1414 0.378164 63.9671 0.297948 60.0709 0.126055L52.5993 0C52.4274 0 52.3472 0.25211 52.3472 0.756329C52.3472 1.26055 52.4274 1.51266 52.5993 1.51266C56.1403 1.51266 58.7416 1.75331 60.3917 2.21169C62.0419 2.68153 63.1764 3.50662 63.8067 4.68695C64.437 5.86728 64.7578 7.72372 64.7578 10.2563V18.0946H74.1432V10.5198C74.1432 7.98729 74.3494 6.10793 74.7735 4.89322C75.1975 3.66705 76.0111 2.79613 77.2487 2.29191C78.4749 1.77623 80.4345 1.52412 83.1504 1.52412C83.3223 1.52412 83.4025 1.27201 83.4025 0.767788C83.4025 0.263569 83.3223 0.0114595 83.1504 0.0114595L83.1389 0Z" fill="#E7C0AE"/>
<path d="M64.7578 86.0381C64.7578 93.5556 64.0588 99.0218 62.6607 102.437C61.2741 105.863 59.1885 107.571 56.3923 107.571C55.3724 107.571 54.5703 107.296 53.9744 106.746C53.3899 106.207 52.7138 105.302 51.9575 104.041C51.1095 102.597 50.2615 101.497 49.4135 100.741C48.5655 99.9844 47.3966 99.6062 45.8725 99.6062C44.3484 99.6062 43.2941 100.042 42.4461 100.924C41.5981 101.818 41.1856 102.941 41.1856 104.293C41.1856 106.058 42.0565 107.456 43.7869 108.464C45.5173 109.484 47.8665 110 50.823 110C58.3405 110 64.1046 107.502 68.104 102.517C72.1148 97.532 74.1317 90.7824 74.1317 82.2565V54.1921H64.7463V86.0496L64.7578 86.0381Z" fill="#E7C0AE"/>
</svg>
