<svg width="20" height="20" viewBox="0 0 20 20" fill="none" xmlns="http://www.w3.org/2000/svg">
<path d="M10.0325 1.46777C11.145 1.4639 12.2472 1.68089 13.2747 2.10742C14.3016 2.53374 15.2334 3.16016 16.0159 3.9502C17.6118 5.5461 18.4914 7.67239 18.4915 9.93359C18.4915 14.594 14.6938 18.3915 10.0334 18.3916C8.64304 18.3916 7.27764 18.0463 6.05786 17.3965L1.75903 18.5273L1.42407 18.6152L1.51489 18.2812L2.6604 14.0752C1.95364 12.8136 1.57453 11.3905 1.57446 9.92578C1.57446 5.26559 5.37237 1.4682 10.0325 1.46777ZM10.0247 3.25879C6.3519 3.25893 3.35864 6.25299 3.35864 9.92578C3.35967 11.1791 3.71302 12.4065 4.37817 13.4688H4.3772L4.54321 13.7256L4.59106 13.7998L4.56763 13.8867L3.96704 16.085L6.23267 15.4902L6.31372 15.4688L6.38599 15.5127L6.63403 15.6611C7.66181 16.2681 8.83617 16.5918 10.0334 16.5918C13.7067 16.5917 16.699 13.6062 16.6829 9.93457V9.93262C16.6861 9.05682 16.5155 8.18926 16.1809 7.37988C15.8463 6.57037 15.3545 5.83476 14.7336 5.2168H14.7327C13.4786 3.95465 11.8048 3.25879 10.0247 3.25879ZM7.52173 5.90918C7.53801 5.91012 7.68664 5.90034 7.81274 5.96094C7.95516 6.02946 8.06684 6.16762 8.15942 6.38965L8.1604 6.39258C8.32931 6.81485 8.74217 7.82076 8.78735 7.91113C8.85122 8.03896 8.90919 8.22485 8.80591 8.44434L8.80396 8.44824C8.73951 8.57714 8.68721 8.69161 8.5686 8.83008C8.47987 8.9336 8.34781 9.10166 8.24927 9.2002C8.22229 9.22717 8.20353 9.24707 8.18872 9.26562C8.17442 9.2836 8.16851 9.2955 8.16626 9.30176C8.16475 9.30607 8.16322 9.31092 8.16431 9.31934C8.16569 9.3296 8.17084 9.35075 8.1897 9.38477C8.31572 9.59472 8.71093 10.2421 9.30005 10.7676C10.0566 11.4436 10.6891 11.6551 10.9114 11.7617L10.9172 11.7646C11.0069 11.8113 11.0472 11.8139 11.0608 11.8125C11.0645 11.8121 11.0823 11.8109 11.1204 11.7646L11.1243 11.7607C11.2414 11.6269 11.626 11.1687 11.76 10.9717L11.762 10.9678C11.8545 10.8372 11.969 10.7519 12.1174 10.7354C12.1811 10.7283 12.2439 10.7351 12.302 10.748L12.4573 10.7949L12.467 10.7979V10.7988C12.6575 10.8767 13.6858 11.3824 13.886 11.4785C13.9771 11.5222 14.0774 11.5652 14.1458 11.6016C14.2194 11.6408 14.3032 11.6941 14.3606 11.7842C14.4024 11.8499 14.4162 11.9346 14.4221 11.998C14.4289 12.0711 14.4282 12.1584 14.4202 12.2539C14.4041 12.4448 14.3554 12.683 14.2629 12.9395L14.2639 12.9404C14.1578 13.2482 13.8608 13.5103 13.5745 13.6943C13.2832 13.8815 12.95 14.0219 12.7122 14.0566H12.7112C12.3396 14.1085 11.8561 14.1365 11.3245 13.9658C11.0203 13.8729 10.6284 13.7463 10.1272 13.5254V13.5244C8.002 12.6065 6.6145 10.475 6.51978 10.3408V10.3398C6.46137 10.262 6.24719 9.97583 6.04614 9.58008C5.84185 9.17782 5.64185 8.64494 5.64185 8.0918C5.64193 6.99251 6.22693 6.4416 6.40845 6.23535L6.41138 6.23145C6.64678 5.97572 6.92049 5.90918 7.10864 5.90918H7.52173Z" fill="#80342C" stroke="#80342C" stroke-width="0.4"/>
</svg>
