<svg width="66" height="66" viewBox="0 0 71 66" fill="none" xmlns="http://www.w3.org/2000/svg">
<g clip-path="url(#clip0_48_49)">
<path d="M52.1579 35.4673V1.28906C52.1579 0.577113 51.5808 0 50.8689 0H1.28906C0.577113 0 0 0.577113 0 1.28906V57.75C0 58.4619 0.577113 59.0391 1.28906 59.0391H37.8765C40.6096 63.2265 45.3359 66 50.6986 66C59.1359 66 66 59.1359 66 50.6987C66 42.7537 59.913 36.2045 52.1579 35.4673ZM5.92969 56.4609H2.57812V2.57812H5.92969V56.4609ZM37.8014 42.4733C37.7762 42.5125 37.752 42.5523 37.7272 42.5919C37.6881 42.6543 37.6486 42.7166 37.6103 42.7796H28.3304C27.6184 42.7796 27.0413 43.3567 27.0413 44.0687C27.0413 44.7806 27.6184 45.3577 28.3304 45.3577H36.3596C36.3565 45.3661 36.3535 45.3745 36.3504 45.3829C36.3294 45.4395 36.309 45.4963 36.2887 45.5531C36.2678 45.6114 36.247 45.6698 36.2268 45.7283C36.2072 45.7852 36.1882 45.8422 36.1693 45.8993C36.1497 45.9586 36.1302 46.0179 36.1113 46.0774C36.0931 46.1346 36.0754 46.192 36.0579 46.2494C36.0396 46.3096 36.0216 46.3699 36.0039 46.4305C35.9871 46.4878 35.9709 46.5455 35.9548 46.6031C35.9378 46.6642 35.9211 46.7256 35.9049 46.7869C35.8897 46.8445 35.8747 46.9023 35.86 46.9602C35.8443 47.0224 35.8291 47.0849 35.8142 47.1476C35.8004 47.2052 35.7868 47.2628 35.7738 47.3206C35.7595 47.384 35.7457 47.4476 35.7322 47.5112C35.7199 47.5689 35.7077 47.6266 35.6961 47.6845C35.6832 47.7489 35.6709 47.8136 35.6588 47.8785C35.648 47.9361 35.6372 47.9936 35.6271 48.0515C35.6253 48.062 35.6231 48.0725 35.6213 48.0831H33.0137C32.3017 48.0831 31.7246 48.6602 31.7246 49.3721C31.7246 50.0841 32.3017 50.6612 33.0137 50.6612H35.3978C35.3978 50.6737 35.3973 50.6861 35.3973 50.6986C35.3973 50.8255 35.3989 50.9524 35.402 51.0791C35.4037 51.1461 35.4068 51.2128 35.4094 51.2797C35.4116 51.3376 35.4131 51.3956 35.416 51.4534C35.4203 51.5432 35.4263 51.6324 35.4322 51.7217C35.4344 51.7555 35.4362 51.7894 35.4386 51.8232C35.4463 51.927 35.4554 52.0304 35.4649 52.1338C35.4666 52.1522 35.468 52.1705 35.4698 52.189C35.4808 52.3023 35.4934 52.4152 35.5068 52.5278C35.5079 52.536 35.5086 52.5443 35.5097 52.5525C35.5241 52.6719 35.5401 52.7908 35.5574 52.9093C35.5576 52.9111 35.5579 52.9128 35.5581 52.9146C35.5936 53.1582 35.635 53.3999 35.6819 53.6398C35.682 53.6402 35.682 53.6406 35.6822 53.641C35.7051 53.7585 35.7295 53.8756 35.7552 53.9921C35.7564 53.9973 35.7576 54.0026 35.7587 54.0079C35.7831 54.1181 35.8087 54.2279 35.8356 54.3372C35.8389 54.3511 35.8423 54.3651 35.8457 54.379C35.8704 54.4782 35.8959 54.5771 35.9224 54.6756C35.9296 54.7024 35.9369 54.7291 35.9442 54.7558C35.9674 54.8401 35.9914 54.9242 36.016 55.008C36.0288 55.0517 36.0418 55.0953 36.0551 55.1389C36.0749 55.2044 36.0952 55.2697 36.1159 55.3348C36.1365 55.3999 36.1578 55.4649 36.1793 55.5297C36.1934 55.572 36.2076 55.6143 36.2221 55.6564C36.2531 55.7468 36.2849 55.8369 36.3175 55.9269C36.3232 55.9425 36.3289 55.9582 36.3347 55.9738C36.3946 56.137 36.4562 56.2997 36.5217 56.4609H8.50781V2.57812H49.5798V35.4379C49.5699 35.4386 49.5599 35.4397 49.5501 35.4405C49.4961 35.4445 49.4424 35.4496 49.3885 35.4541C49.3164 35.4603 49.2443 35.4662 49.1723 35.4733C49.1157 35.479 49.0595 35.4856 49.0031 35.4918C48.9344 35.4994 48.8655 35.5068 48.7971 35.5153C48.7389 35.5226 48.6811 35.5307 48.6231 35.5387C48.5569 35.5477 48.4908 35.5566 48.4249 35.5665C48.3656 35.5754 48.3066 35.5851 48.2474 35.5946C48.1833 35.6051 48.1193 35.6154 48.0553 35.6266C47.9955 35.637 47.936 35.6483 47.8764 35.6593C47.8139 35.6711 47.7514 35.6828 47.6893 35.6953C47.6289 35.7074 47.5687 35.7201 47.5087 35.7329C47.4477 35.7458 47.3868 35.7591 47.3261 35.7728C47.2654 35.7864 47.2051 35.8006 47.1446 35.8151C47.0851 35.8292 47.0256 35.8438 46.9665 35.8586C46.9056 35.874 46.845 35.8897 46.7845 35.9057C46.7261 35.9211 46.6679 35.9369 46.6098 35.953C46.5491 35.9699 46.4886 35.987 46.4282 36.0045C46.3709 36.0212 46.3138 36.0383 46.2568 36.0556C46.1961 36.074 46.1355 36.0927 46.0751 36.1119C46.0191 36.1297 45.9635 36.148 45.9078 36.1663C45.8471 36.1864 45.7865 36.2065 45.7261 36.2273C45.6715 36.2461 45.6171 36.2656 45.5627 36.285C45.502 36.3067 45.4411 36.3285 45.3808 36.351C45.3277 36.3708 45.2748 36.3911 45.222 36.4115C45.161 36.435 45.1 36.4583 45.0395 36.4825C44.9879 36.5032 44.9367 36.5244 44.8854 36.5456C44.8243 36.5708 44.7631 36.5958 44.7022 36.6219C44.6524 36.6431 44.6029 36.6653 44.5534 36.6871C44.4919 36.7142 44.4304 36.741 44.3694 36.7688C44.322 36.7905 44.2749 36.813 44.2276 36.8351C44.165 36.8644 44.1023 36.8935 44.0402 36.9236C43.9966 36.9448 43.9535 36.9668 43.9101 36.9884C43.8453 37.0206 43.7802 37.0527 43.7157 37.0858C43.6787 37.1049 43.6422 37.1247 43.6054 37.1441C43.5353 37.1809 43.465 37.2176 43.3955 37.2555C43.3838 37.2619 43.3722 37.2686 43.3605 37.275C43.0901 37.4234 42.825 37.58 42.565 37.7439C42.536 37.7622 42.5066 37.78 42.4776 37.7985C42.4132 37.8397 42.3498 37.8819 42.2861 37.924C42.2497 37.9481 42.2129 37.9717 42.1766 37.9961C42.116 38.0369 42.056 38.0788 41.9961 38.1204C41.9577 38.1471 41.919 38.1734 41.8807 38.2005C41.8227 38.2416 41.7652 38.2836 41.7079 38.3254C41.6684 38.3541 41.6289 38.3825 41.5897 38.4116C41.5335 38.4534 41.4779 38.496 41.4222 38.5386C41.3828 38.5688 41.3433 38.5987 41.3041 38.6292C41.2496 38.6717 41.1956 38.7151 41.1417 38.7582C41.1021 38.79 41.0626 38.8215 41.0234 38.8536C40.9704 38.8969 40.9181 38.9409 40.8656 38.985C40.8265 39.0179 40.7874 39.0507 40.7486 39.084C40.697 39.1283 40.6458 39.1731 40.5948 39.2181C40.556 39.2522 40.5172 39.2865 40.4788 39.321C40.4286 39.366 40.379 39.4115 40.3295 39.4573C40.2911 39.4927 40.2527 39.5285 40.2146 39.5643C40.1659 39.6102 40.1176 39.6563 40.0696 39.7029C40.0318 39.7395 39.9941 39.7762 39.9567 39.8132C39.9091 39.8601 39.8618 39.9073 39.8149 39.9549C39.7779 39.9924 39.741 40.0302 39.7044 40.0681C39.6581 40.1159 39.612 40.1641 39.5664 40.2126C39.5301 40.251 39.4942 40.2898 39.4583 40.3286C39.4131 40.3776 39.368 40.4267 39.3234 40.4763C39.2882 40.5155 39.2534 40.5549 39.2184 40.5945C39.1742 40.6447 39.1301 40.6949 39.0866 40.7457C39.0523 40.7857 39.0185 40.8259 38.9846 40.8662C38.9417 40.9174 38.8986 40.9685 38.8563 41.0202C38.8228 41.061 38.79 41.1024 38.7568 41.1437C38.7151 41.1957 38.6733 41.2478 38.6322 41.3004C38.5997 41.342 38.5677 41.3842 38.5356 41.4262C38.495 41.4792 38.4544 41.5322 38.4146 41.5858C38.3831 41.6282 38.3523 41.671 38.3213 41.7137C38.2818 41.7678 38.2421 41.822 38.2034 41.8766C38.1733 41.9193 38.1439 41.9625 38.1141 42.0054C38.0756 42.0609 38.0369 42.1162 37.9991 42.1723C37.9705 42.2149 37.9428 42.2579 37.9146 42.3007C37.8767 42.3582 37.8385 42.4153 37.8014 42.4733ZM50.6987 63.4219C45.3322 63.4219 40.7313 60.0822 38.8646 55.3719C38.8618 55.3648 38.8589 55.3578 38.8561 55.3507C38.8231 55.267 38.7912 55.1828 38.7599 55.0983C38.7459 55.0601 38.7323 55.0217 38.7185 54.9834C38.694 54.9152 38.6694 54.8469 38.6461 54.7782C38.6092 54.6693 38.5738 54.5598 38.5399 54.4497C38.5298 54.4173 38.5204 54.3844 38.5106 54.3518C38.4817 54.2552 38.4536 54.1584 38.4271 54.0612C38.4199 54.0349 38.4126 54.0086 38.4057 53.9822C38.3024 53.5947 38.2171 53.2023 38.1507 52.8061C38.149 52.7963 38.1475 52.7866 38.1458 52.7768C38.0805 52.3808 38.0339 51.9811 38.0062 51.5791C38.0041 51.549 38.0023 51.5188 38.0004 51.4885C37.9942 51.3881 37.9893 51.2875 37.9854 51.187C37.9842 51.153 37.9826 51.1189 37.9816 51.0849C37.9777 50.9563 37.9753 50.8275 37.9753 50.6986C37.9753 43.683 43.6828 37.9754 50.6984 37.9754C50.737 37.9754 50.7753 37.9766 50.8137 37.9768L50.8529 37.9775C50.8536 37.9775 50.8543 37.9773 50.8551 37.9773C57.7989 38.0618 63.4219 43.7354 63.4219 50.6987C63.4219 57.7143 57.7143 63.4219 50.6987 63.4219Z" fill="#80342C"/>
<path d="M50.6988 40.0854C44.8467 40.0854 40.0857 44.8465 40.0857 50.6986C40.0857 56.5506 44.8467 61.3117 50.6988 61.3117C56.5509 61.3117 61.3119 56.5506 61.3119 50.6986C61.3118 44.8465 56.5509 40.0854 50.6988 40.0854ZM50.6988 58.7334C46.2683 58.7334 42.6638 55.1289 42.6638 50.6984C42.6638 46.2679 46.2683 42.6634 50.6988 42.6634C55.1293 42.6634 58.7338 46.2679 58.7338 50.6984C58.7337 55.1289 55.1292 58.7334 50.6988 58.7334Z" fill="#80342C"/>
<path d="M55.6656 49.4097H51.9878V45.2778C51.9878 44.5659 51.4107 43.9888 50.6987 43.9888C49.9868 43.9888 49.4097 44.5659 49.4097 45.2778V50.6987C49.4097 51.4107 49.9868 51.9878 50.6987 51.9878H55.6656C56.3776 51.9878 56.9547 51.4107 56.9547 50.6987C56.9547 49.9868 56.3776 49.4097 55.6656 49.4097Z" fill="#80342C"/>
<path d="M47.3046 9.41547C47.2879 9.33297 47.2634 9.25176 47.2311 9.17441C47.1989 9.09578 47.1589 9.02102 47.1125 8.95141C47.0648 8.88051 47.0107 8.81477 46.9514 8.75547C46.8921 8.69617 46.8264 8.64203 46.7555 8.59562C46.6859 8.54922 46.6111 8.50926 46.5337 8.47703C46.4551 8.4448 46.3739 8.42031 46.2927 8.40355C46.1264 8.37004 45.955 8.37004 45.7887 8.40355C45.7062 8.42031 45.625 8.4448 45.5476 8.47703C45.469 8.50926 45.3942 8.54922 45.3246 8.59562C45.2537 8.64203 45.188 8.69617 45.1287 8.75547C45.0694 8.81477 45.0152 8.88051 44.9688 8.95141C44.9224 9.02102 44.8825 9.09578 44.8502 9.17441C44.818 9.25176 44.7935 9.33297 44.7768 9.41547C44.76 9.49797 44.751 9.58305 44.751 9.66684C44.751 9.75062 44.76 9.8357 44.7768 9.91949C44.7935 10.0007 44.818 10.0819 44.8502 10.1605C44.8825 10.2379 44.9224 10.3127 44.9688 10.3823C45.0152 10.4532 45.0694 10.5189 45.1287 10.5782C45.188 10.6375 45.2537 10.6916 45.3246 10.7393C45.3942 10.7857 45.469 10.8257 45.5476 10.8579C45.625 10.8902 45.7062 10.9146 45.7887 10.9314C45.8712 10.9482 45.9562 10.9559 46.04 10.9559C46.1238 10.9559 46.2089 10.9482 46.2927 10.9314C46.3739 10.9146 46.4551 10.8902 46.5337 10.8579C46.6111 10.8257 46.6859 10.7857 46.7555 10.7393C46.8264 10.6916 46.8921 10.6375 46.9514 10.5782C47.0107 10.5189 47.0648 10.4532 47.1125 10.3823C47.1589 10.3127 47.1989 10.2379 47.2311 10.1605C47.2634 10.0819 47.2879 10.0007 47.3046 9.91949C47.3214 9.8357 47.3291 9.75062 47.3291 9.66684C47.3291 9.58305 47.3214 9.49797 47.3046 9.41547Z" fill="#80342C"/>
<path d="M41.357 8.37793H28.3301C27.6181 8.37793 27.041 8.95504 27.041 9.66699C27.041 10.3789 27.6183 10.9561 28.3301 10.9561H41.357C42.0689 10.9561 42.646 10.3789 42.646 9.66699C42.646 8.95504 42.0689 8.37793 41.357 8.37793Z" fill="#80342C"/>
<path d="M29.5944 14.7187C29.5776 14.6362 29.5532 14.555 29.5209 14.4776C29.4887 14.399 29.4487 14.3242 29.4023 14.2546C29.3546 14.1837 29.3005 14.118 29.2412 14.0587C29.1819 13.9994 29.1162 13.9453 29.0453 13.8988C28.9757 13.8524 28.9009 13.8125 28.8235 13.7803C28.7449 13.748 28.6637 13.7235 28.5825 13.7068C28.4162 13.6733 28.2448 13.6733 28.0785 13.7068C27.996 13.7235 27.9148 13.748 27.8374 13.7803C27.7601 13.8125 27.684 13.8524 27.6144 13.8988C27.5435 13.9453 27.4778 13.9994 27.4185 14.0587C27.3592 14.118 27.305 14.1837 27.2586 14.2546C27.2122 14.3241 27.1723 14.399 27.14 14.4776C27.1078 14.555 27.0833 14.6362 27.0666 14.7187C27.0498 14.8012 27.0408 14.8863 27.0408 14.9701C27.0408 15.3104 27.1787 15.6417 27.4185 15.8814C27.4778 15.9407 27.5435 15.9949 27.6144 16.0426C27.684 16.089 27.7601 16.1289 27.8374 16.1612C27.9148 16.1934 27.996 16.2179 28.0785 16.2346C28.161 16.2514 28.246 16.2591 28.3298 16.2591C28.6701 16.2591 29.0014 16.1212 29.2412 15.8814C29.4823 15.6417 29.6189 15.3104 29.6189 14.9701C29.6189 14.8863 29.6112 14.8012 29.5944 14.7187Z" fill="#80342C"/>
<path d="M46.0405 13.6812H33.0137C32.3017 13.6812 31.7246 14.2583 31.7246 14.9702C31.7246 15.6822 32.3017 16.2593 33.0137 16.2593H46.0405C46.7525 16.2593 47.3296 15.6822 47.3296 14.9702C47.3296 14.2583 46.7525 13.6812 46.0405 13.6812Z" fill="#80342C"/>
<path d="M17.5311 5.35645C13.6921 5.35645 10.5688 8.47971 10.5688 12.3187C10.5688 16.1576 13.6921 19.2809 17.5311 19.2809C21.37 19.2809 24.4933 16.1578 24.4933 12.3187C24.4932 8.47971 21.37 5.35645 17.5311 5.35645ZM17.5311 16.7028C15.1136 16.7028 13.147 14.7361 13.147 12.3187C13.147 9.90129 15.1137 7.93457 17.5311 7.93457C19.9485 7.93457 21.9152 9.90129 21.9152 12.3187C21.915 14.7361 19.9485 16.7028 17.5311 16.7028Z" fill="#80342C"/>
<path d="M20.383 10.2884C19.8796 9.78532 19.0634 9.78532 18.56 10.2887L16.9299 11.9188L16.0783 11.5707C15.4195 11.3015 14.6666 11.6171 14.3972 12.276C14.1278 12.935 14.4436 13.6877 15.1026 13.957L16.7475 14.6295C16.9054 14.6939 17.0709 14.7254 17.235 14.7254C17.5704 14.7254 17.9003 14.5943 18.1467 14.3478L20.383 12.1116C20.8864 11.6082 20.8864 10.7919 20.383 10.2884Z" fill="#80342C"/>
<path d="M47.3046 26.6165C47.2879 26.534 47.2634 26.4528 47.2311 26.3741C47.1989 26.2968 47.1589 26.222 47.1125 26.1524C47.0648 26.0815 47.0107 26.0158 46.9514 25.9565C46.8921 25.8972 46.8264 25.843 46.7555 25.7953C46.6859 25.7489 46.6111 25.7103 46.5337 25.678C46.4551 25.6458 46.3739 25.62 46.2927 25.6033C46.1264 25.571 45.955 25.571 45.7887 25.6033C45.7062 25.62 45.625 25.6458 45.5476 25.678C45.469 25.7103 45.3942 25.7489 45.3246 25.7953C45.2537 25.843 45.188 25.8972 45.1287 25.9565C45.0694 26.0158 45.0152 26.0815 44.9688 26.1524C44.9224 26.222 44.8825 26.2968 44.8502 26.3741C44.818 26.4528 44.7935 26.534 44.7768 26.6165C44.76 26.699 44.751 26.7841 44.751 26.8678C44.751 26.9516 44.76 27.0367 44.7768 27.1192C44.7935 27.2017 44.818 27.2829 44.8502 27.3603C44.8825 27.4389 44.9224 27.5137 44.9688 27.5833C45.0152 27.6542 45.0694 27.7199 45.1287 27.7792C45.188 27.8385 45.2537 27.8926 45.3246 27.9391C45.3942 27.9855 45.469 28.0254 45.5476 28.0576C45.625 28.0899 45.7062 28.1144 45.7887 28.1311C45.8712 28.1479 45.9562 28.1569 46.04 28.1569C46.1238 28.1569 46.2089 28.1479 46.2927 28.1311C46.3739 28.1144 46.4551 28.0899 46.5337 28.0576C46.6111 28.0254 46.6859 27.9855 46.7555 27.9391C46.8264 27.8926 46.8921 27.8385 46.9514 27.7792C47.0107 27.7199 47.0648 27.6542 47.1125 27.5833C47.1589 27.5137 47.1989 27.4389 47.2311 27.3603C47.2634 27.2829 47.2879 27.2017 47.3046 27.1192C47.3214 27.0367 47.3291 26.9516 47.3291 26.8678C47.3291 26.7841 47.3214 26.699 47.3046 26.6165Z" fill="#80342C"/>
<path d="M41.357 25.5786H28.3301C27.6181 25.5786 27.041 26.1557 27.041 26.8677C27.041 27.5796 27.6181 28.1567 28.3301 28.1567H41.357C42.0689 28.1567 42.646 27.5796 42.646 26.8677C42.646 26.1557 42.0689 25.5786 41.357 25.5786Z" fill="#80342C"/>
<path d="M29.2412 31.26C28.9421 30.9609 28.4974 30.823 28.0785 30.9081C27.996 30.9236 27.9148 30.9493 27.8374 30.9816C27.7601 31.0138 27.684 31.0538 27.6144 31.1002C27.5435 31.1466 27.4778 31.2007 27.4185 31.26C27.1787 31.4998 27.0408 31.8323 27.0408 32.1714C27.0408 32.2552 27.0498 32.3402 27.0666 32.4227C27.0833 32.5051 27.1078 32.5863 27.14 32.665C27.1723 32.7423 27.2122 32.8171 27.2586 32.8867C27.305 32.9576 27.3592 33.0233 27.4185 33.0826C27.4778 33.142 27.5435 33.1961 27.6144 33.2437C27.684 33.2902 27.7601 33.3302 27.8374 33.3625C27.9148 33.3947 27.996 33.4192 28.0785 33.4359C28.161 33.4527 28.246 33.4604 28.3298 33.4604C28.6701 33.4604 29.0014 33.3225 29.2412 33.0827C29.3005 33.0234 29.3546 32.9577 29.4023 32.8868C29.4487 32.8172 29.4887 32.7424 29.5209 32.6651C29.5532 32.5865 29.5776 32.5052 29.5944 32.4227C29.6112 32.3402 29.6189 32.2552 29.6189 32.1714C29.6189 31.8323 29.4823 31.4998 29.2412 31.26Z" fill="#80342C"/>
<path d="M46.0405 30.8823H33.0137C32.3017 30.8823 31.7246 31.4594 31.7246 32.1714C31.7246 32.8833 32.3017 33.4605 33.0137 33.4605H46.0405C46.7525 33.4605 47.3296 32.8833 47.3296 32.1714C47.3296 31.4594 46.7525 30.8823 46.0405 30.8823Z" fill="#80342C"/>
<path d="M17.5311 22.5571C13.6921 22.5571 10.5688 25.6804 10.5688 29.5194C10.5688 33.3583 13.6921 36.4816 17.5311 36.4816C21.37 36.4816 24.4933 33.3583 24.4933 29.5194C24.4932 25.6804 21.37 22.5571 17.5311 22.5571ZM17.5311 33.9035C15.1136 33.9035 13.147 31.9367 13.147 29.5194C13.147 27.102 15.1137 25.1353 17.5311 25.1353C19.9485 25.1353 21.9152 27.102 21.9152 29.5194C21.9152 31.9367 19.9485 33.9035 17.5311 33.9035Z" fill="#80342C"/>
<path d="M20.383 27.4896C19.8796 26.9865 19.0634 26.9865 18.56 27.4899L16.9299 29.12L16.0783 28.7718C15.4195 28.5027 14.6666 28.8182 14.3972 29.4772C14.1278 30.1362 14.4436 30.8889 15.1026 31.1582L16.7475 31.8307C16.9054 31.8951 17.0709 31.9266 17.235 31.9266C17.5704 31.9266 17.9003 31.7955 18.1467 31.549L20.383 29.3127C20.8864 28.8094 20.8864 27.9931 20.383 27.4896Z" fill="#80342C"/>
<path d="M29.5944 49.121C29.5776 49.0385 29.5532 48.9573 29.5209 48.8787C29.4887 48.8013 29.4487 48.7266 29.4023 48.657C29.3546 48.5861 29.3005 48.5203 29.2412 48.461C29.1819 48.4017 29.1162 48.3476 29.0453 48.2999C28.9757 48.2535 28.9009 48.2148 28.8235 48.1826C28.7449 48.1504 28.6637 48.1246 28.5825 48.1091C28.4162 48.0756 28.2448 48.0756 28.0785 48.1091C27.996 48.1246 27.9148 48.1504 27.8374 48.1826C27.7601 48.2148 27.684 48.2535 27.6144 48.2999C27.5435 48.3476 27.4778 48.4017 27.4185 48.461C27.3592 48.5203 27.305 48.5861 27.2586 48.657C27.2122 48.7266 27.1723 48.8013 27.14 48.8787C27.1078 48.9573 27.0833 49.0385 27.0666 49.121C27.0498 49.2035 27.0408 49.2886 27.0408 49.3724C27.0408 49.7114 27.1787 50.044 27.4185 50.2838C27.4778 50.3431 27.5435 50.3972 27.6144 50.4436C27.684 50.49 27.7601 50.53 27.8374 50.5622C27.9148 50.5944 27.996 50.6189 28.0785 50.6357C28.161 50.6524 28.246 50.6615 28.3298 50.6615C28.6701 50.6615 29.0014 50.5235 29.2412 50.2838C29.4823 50.044 29.6189 49.7113 29.6189 49.3724C29.6189 49.2886 29.6112 49.2035 29.5944 49.121Z" fill="#80342C"/>
<path d="M17.5311 39.7583C13.6921 39.7583 10.5688 42.8816 10.5688 46.7205C10.5688 50.5595 13.6921 53.6828 17.5311 53.6828C21.37 53.6828 24.4933 50.5595 24.4933 46.7205C24.4932 42.8816 21.37 39.7583 17.5311 39.7583ZM17.5311 51.1046C15.1136 51.1046 13.147 49.1379 13.147 46.7205C13.147 44.3031 15.1137 42.3364 17.5311 42.3364C19.9485 42.3364 21.9152 44.3031 21.9152 46.7205C21.915 49.1379 19.9485 51.1046 17.5311 51.1046Z" fill="#80342C"/>
<path d="M20.383 44.691C19.8796 44.1876 19.0634 44.1876 18.56 44.691L16.9299 46.3213L16.0783 45.9731C15.4195 45.7038 14.6668 46.0195 14.3972 46.6785C14.1278 47.3375 14.4436 48.0901 15.1026 48.3596L16.7475 49.0319C16.9054 49.0965 17.0709 49.1278 17.235 49.1278C17.5704 49.1278 17.9003 48.9967 18.1467 48.7503L20.383 46.514C20.8864 46.0106 20.8864 45.1944 20.383 44.691Z" fill="#80342C"/>
</g>
<defs>
<clipPath id="clip0_48_49">
<rect width="66" height="66" fill="white"/>
</clipPath>
</defs>
</svg>
