<svg width="71" height="71" viewBox="0 0 71 71" fill="none" xmlns="http://www.w3.org/2000/svg">
<g clip-path="url(#clip0_48_20)">
<path d="M68.0754 21.1504L66.1792 21.9719C69.704 30.1088 69.8489 39.1318 66.5875 47.3781L68.509 48.1383C71.9735 39.3785 71.8195 29.794 68.0754 21.1504Z" fill="#80342C"/>
<path d="M61.5647 23.9699C64.5558 30.875 64.6788 38.5316 61.9114 45.5291L63.833 46.2893C66.8035 38.7784 66.6714 30.5602 63.4609 23.1484L61.5647 23.9699Z" fill="#80342C"/>
<path d="M57.457 43.3088L59.3787 44.069C61.779 37.9993 61.6723 31.3584 59.0778 25.3691L57.1816 26.1906C59.5568 31.6731 59.6545 37.7526 57.457 43.3088Z" fill="#80342C"/>
<path d="M2.92466 21.1504C-0.819583 29.794 -0.973601 39.3785 2.49084 48.1383L4.41235 47.3781C1.15083 39.1318 1.29589 30.1089 4.82081 21.9719L2.92466 21.1504Z" fill="#80342C"/>
<path d="M9.43504 23.9699L7.53888 23.1484C4.32833 30.5602 4.19608 38.7782 7.16678 46.2893L9.08829 45.5291C6.32079 38.5316 6.44395 30.875 9.43504 23.9699Z" fill="#80342C"/>
<path d="M13.543 43.3089C11.3456 37.7529 11.4432 31.6734 13.8183 26.1906L11.9221 25.3691C9.32763 31.3585 9.22087 37.9995 11.6214 44.069L13.543 43.3089Z" fill="#80342C"/>
<path d="M34.7483 18.9968C39.3975 18.9116 42.6369 22.9844 42.5892 27.5299L44.6556 27.5307C44.7277 21.8768 40.5066 16.8095 34.7454 16.9303C29.9557 16.9303 26.0588 20.8272 26.0588 25.6169C26.0588 29.5629 29.269 32.7729 33.2148 32.7729C36.4854 32.7729 39.1461 30.1121 39.1461 26.8414C39.1461 24.1111 36.9247 21.8896 34.1944 21.8896C31.8961 21.8896 30.0264 23.7593 30.0264 26.0578H32.0928C32.0928 24.8989 33.0357 23.9561 34.1944 23.9561C35.7854 23.9561 37.0797 25.2505 37.0797 26.8414C37.0797 28.9725 35.3459 30.7064 33.2148 30.7064C30.4084 30.7064 28.1253 28.4233 28.1253 25.6169C28.1253 21.9666 31.0951 18.9968 34.7483 18.9968Z" fill="#80342C"/>
<path d="M34.2441 0.23291H36.3106V8.49864H34.2441V0.23291Z" fill="#80342C"/>
<path d="M44.4966 10.8022L49.1585 3.97475L50.8653 5.14022L46.2035 11.9677L44.4966 10.8022Z" fill="#80342C"/>
<path d="M19.6987 5.146L21.4056 3.98053L26.0675 10.808L24.3606 11.9735L19.6987 5.146Z" fill="#80342C"/>
<path d="M27.5891 4.25L29.5543 3.60941L31.3513 9.12212L29.3861 9.76272L27.5891 4.25Z" fill="#80342C"/>
<path d="M39.5508 9.08887L41.3478 3.57615L43.313 4.21675L41.516 9.72946L39.5508 9.08887Z" fill="#80342C"/>
<path d="M57.0567 60.8354L55.6589 62.3576C58.3392 64.8188 59.6421 67.5698 59.6421 70.7674H61.7085C61.7085 67.0117 60.1434 63.6702 57.0567 60.8354Z" fill="#80342C"/>
<path d="M45.8684 54.0664L45.8986 54.0481C45.7479 53.8003 45.4061 53.5306 44.9647 53.5556C43.5824 52.6851 41.6402 50.8102 41.4742 48.8637C43.9615 47.1858 46.2624 44.4913 48.2375 40.8881C50.8505 40.6253 53.0417 38.7538 53.6826 36.1567L53.9197 35.195C54.3893 33.4505 53.3234 31.5027 51.6215 30.9385C54.2083 13.9515 32.627 4.54632 22.0753 18.2422L23.704 19.5138C34.0161 6.64334 53.4846 16.9346 49.163 32.803H50.4269C50.9003 32.803 51.3394 33.0168 51.6314 33.3894C51.9238 33.7624 52.0264 34.2405 51.913 34.7008L51.6761 35.6621C51.2124 37.5415 49.5373 38.8539 47.603 38.8536L46.9795 38.8535C40.353 52.1101 30.149 52.0821 23.5781 38.8536H22.9516C21.0166 38.8536 19.3415 37.5413 18.8784 35.6624L18.6385 34.6896C18.5238 34.2455 18.6283 33.7726 18.9253 33.3918C19.2174 33.0172 19.6489 32.8031 20.1105 32.8031H20.1206L21.3907 32.8117C20.3823 28.8164 20.7007 24.4355 22.6548 21.1252L20.8653 20.092C19.0759 23.1913 18.391 27.0917 18.9368 30.9352C17.245 31.4908 16.148 33.4842 16.635 35.1955L16.872 36.1571C17.512 38.7528 19.7015 40.624 22.314 40.8881C24.2738 44.4973 26.5758 47.196 29.079 48.8735C28.8979 50.9297 26.7402 52.9037 25.3574 53.6967C24.5818 54.1415 23.6165 54.6236 22.5945 55.134C17.12 57.8681 8.84692 62 8.84692 70.7676H10.9134C11.0535 62.2112 19.7647 59.0285 25.7454 55.8439L35.0285 60.367C35.189 60.4525 35.3394 60.4853 35.4805 60.4853C35.7495 60.4853 35.984 60.3655 36.1871 60.2616C38.6695 58.9913 42.864 56.8444 44.8151 55.8469C47.8985 57.4809 51.1398 58.8511 54.1445 61.1044L55.3862 59.4527C52.1942 57.0712 48.9905 55.7117 45.8684 54.0664ZM37.7789 57.1255C36.8111 57.6208 35.9796 58.0464 35.4938 58.2949L27.7625 54.5278C29.0617 53.4694 30.5019 51.8518 30.9874 49.9341C33.758 51.1882 36.7942 51.2007 39.5666 49.9325C40.0553 51.8625 41.5116 53.4892 42.8177 54.5478L37.7789 57.1255Z" fill="#80342C"/>
<path d="M32.1777 64.7002H34.2442V66.7666H32.1777V64.7002Z" fill="#80342C"/>
<path d="M36.3105 64.7002H38.377V66.7666H36.3105V64.7002Z" fill="#80342C"/>
</g>
<defs>
<clipPath id="clip0_48_20">
<rect width="71" height="71" fill="white"/>
</clipPath>
</defs>
</svg>
