<svg width="66" height="66" viewBox="0 0 66 66" fill="none" xmlns="http://www.w3.org/2000/svg">
<!-- <g clip-path="url(#clip0_48_201)"> -->
<path d="M34 43.5625C33.3696 43.5625 32.7533 43.7494 32.2291 44.0997C31.7049 44.4499 31.2964 44.9478 31.0551 45.5302C30.8139 46.1126 30.7508 46.7535 30.8737 47.3718C30.9967 47.9902 31.3003 48.5581 31.7461 49.0039C32.1919 49.4497 32.7598 49.7533 33.3782 49.8763C33.9965 49.9992 34.6374 49.9361 35.2198 49.6949C35.8022 49.4536 36.3001 49.0451 36.6503 48.5209C37.0006 47.9967 37.1875 47.3804 37.1875 46.75C37.1875 45.9046 36.8517 45.0939 36.2539 44.4961C35.6561 43.8983 34.8454 43.5625 34 43.5625ZM34 47.8125C33.7899 47.8125 33.5844 47.7502 33.4097 47.6334C33.235 47.5167 33.0988 47.3507 33.0184 47.1566C32.938 46.9625 32.9169 46.7488 32.9579 46.5427C32.9989 46.3366 33.1001 46.1473 33.2487 45.9987C33.3973 45.8501 33.5866 45.7489 33.7927 45.7079C33.9988 45.6669 34.2125 45.688 34.4066 45.7684C34.6007 45.8488 34.7667 45.985 34.8834 46.1597C35.0002 46.3344 35.0625 46.5399 35.0625 46.75C35.0625 47.0318 34.9506 47.302 34.7513 47.5013C34.552 47.7006 34.2818 47.8125 34 47.8125Z" fill="#80342C"/>
<path d="M60.5625 5.31236H45.6152C42.3671 2.56808 38.2522 1.0625 34 1.0625C29.7478 1.0625 25.6329 2.56808 22.3848 5.31236H7.4375C5.74726 5.31405 4.12674 5.98624 2.93156 7.18142C1.73638 8.3766 1.06419 9.99712 1.0625 11.6874V47.8124C1.06419 49.5026 1.73638 51.1231 2.93156 52.3183C4.12674 53.5135 5.74726 54.1857 7.4375 54.1874H25.3587L24.5618 60.5624H23.375C22.5296 60.5624 21.7189 60.8982 21.1211 61.496C20.5233 62.0937 20.1875 62.9045 20.1875 63.7499V65.8749C20.1875 66.1567 20.2994 66.4269 20.4987 66.6262C20.698 66.8254 20.9682 66.9374 21.25 66.9374H46.75C47.0318 66.9374 47.302 66.8254 47.5013 66.6262C47.7006 66.4269 47.8125 66.1567 47.8125 65.8749V63.7499C47.8125 62.9045 47.4767 62.0937 46.8789 61.496C46.2811 60.8982 45.4704 60.5624 44.625 60.5624H43.4382L42.6413 54.1874H60.5625C62.2527 54.1857 63.8733 53.5135 65.0684 52.3183C66.2636 51.1231 66.9358 49.5026 66.9375 47.8124V11.6874C66.9358 9.99712 66.2636 8.3766 65.0684 7.18142C63.8733 5.98624 62.2527 5.31405 60.5625 5.31236ZM49.9375 19.1249C49.9375 22.277 49.0028 25.3584 47.2515 27.9793C45.5003 30.6002 43.0112 32.6429 40.099 33.8492C37.1868 35.0555 33.9823 35.3711 30.8907 34.7561C27.7992 34.1412 24.9594 32.6233 22.7305 30.3944C20.5016 28.1655 18.9837 25.3257 18.3687 22.2341C17.7538 19.1425 18.0694 15.938 19.2757 13.0258C20.4819 10.1136 22.5247 7.62455 25.1456 5.87331C27.7665 4.12208 30.8479 3.18736 34 3.18736C38.2254 3.19214 42.2764 4.8728 45.2642 7.86063C48.2521 10.8485 49.9327 14.8994 49.9375 19.1249ZM7.4375 7.43736H20.2534C17.7116 10.4192 16.215 14.1506 15.9917 18.0624H11.492C11.2414 17.3534 10.7482 16.756 10.0996 16.3755C9.45105 15.995 8.68887 15.8561 7.94778 15.9833C7.2067 16.1104 6.53441 16.4955 6.04976 17.0703C5.56511 17.6452 5.2993 18.3729 5.2993 19.1249C5.2993 19.8768 5.56511 20.6045 6.04976 21.1794C6.53441 21.7543 7.2067 22.1393 7.94778 22.2665C8.68887 22.3936 9.45105 22.2547 10.0996 21.8742C10.7482 21.4938 11.2414 20.8963 11.492 20.1874H15.9917C16.0959 22.0053 16.4768 23.7967 17.1211 25.4999H10.625C10.3432 25.4999 10.073 25.6118 9.8737 25.8111C9.67444 26.0103 9.5625 26.2806 9.5625 26.5624V31.0079C8.85359 31.2585 8.2561 31.7517 7.87564 32.4002C7.49518 33.0488 7.35625 33.811 7.4834 34.5521C7.61056 35.2932 7.9956 35.9655 8.57049 36.4501C9.14537 36.9347 9.87308 37.2006 10.625 37.2006C11.3769 37.2006 12.1046 36.9347 12.6795 36.4501C13.2544 35.9655 13.6394 35.2932 13.7666 34.5521C13.8937 33.811 13.7548 33.0488 13.3744 32.4002C12.9939 31.7517 12.3964 31.2585 11.6875 31.0079V27.6249H18.071C19.6098 30.5131 21.9048 32.9286 24.7107 34.6129C27.5165 36.2972 30.7275 37.187 34 37.187C37.2725 37.187 40.4835 36.2972 43.2893 34.6129C46.0951 32.9286 48.3902 30.5131 49.929 27.6249H56.3125V31.0079C55.6036 31.2585 55.0061 31.7517 54.6256 32.4002C54.2452 33.0488 54.1063 33.811 54.2334 34.5521C54.3606 35.2932 54.7456 35.9655 55.3205 36.4501C55.8954 36.9347 56.6231 37.2006 57.375 37.2006C58.1269 37.2006 58.8546 36.9347 59.4295 36.4501C60.0044 35.9655 60.3894 35.2932 60.5166 34.5521C60.6437 33.811 60.5048 33.0488 60.1244 32.4002C59.7439 31.7517 59.1464 31.2585 58.4375 31.0079V26.5624C58.4375 26.2806 58.3256 26.0103 58.1263 25.8111C57.927 25.6118 57.6568 25.4999 57.375 25.4999H50.8789C51.5232 23.7967 51.9041 22.0053 52.0083 20.1874H56.508C56.7586 20.8963 57.2518 21.4938 57.9004 21.8742C58.5489 22.2547 59.3111 22.3936 60.0522 22.2665C60.7933 22.1393 61.4656 21.7543 61.9502 21.1794C62.4349 20.6045 62.7007 19.8768 62.7007 19.1249C62.7007 18.3729 62.4349 17.6452 61.9502 17.0703C61.4656 16.4955 60.7933 16.1104 60.0522 15.9833C59.3111 15.8561 58.5489 15.995 57.9004 16.3755C57.2518 16.756 56.7586 17.3534 56.508 18.0624H52.0083C51.785 14.1506 50.2884 10.4192 47.7466 7.43736H60.5625C61.6897 7.43736 62.7707 7.88513 63.5677 8.68216C64.3647 9.47919 64.8125 10.5602 64.8125 11.6874V39.3124H3.1875V11.6874C3.1875 10.5602 3.63527 9.47919 4.4323 8.68216C5.22933 7.88513 6.31033 7.43736 7.4375 7.43736ZM9.5625 19.1249C9.5625 19.335 9.50019 19.5404 9.38344 19.7152C9.26669 19.8899 9.10075 20.0261 8.9066 20.1065C8.71245 20.1869 8.49882 20.2079 8.29272 20.1669C8.08661 20.1259 7.89729 20.0248 7.7487 19.8762C7.60011 19.7276 7.49891 19.5383 7.45792 19.3321C7.41692 19.126 7.43796 18.9124 7.51838 18.7183C7.5988 18.5241 7.73498 18.3582 7.90971 18.2414C8.08443 18.1247 8.28986 18.0624 8.5 18.0624C8.78179 18.0624 9.05204 18.1743 9.2513 18.3736C9.45056 18.5728 9.5625 18.8431 9.5625 19.1249ZM11.6875 33.9999C11.6875 34.21 11.6252 34.4154 11.5084 34.5902C11.3917 34.7649 11.2257 34.9011 11.0316 34.9815C10.8375 35.0619 10.6238 35.0829 10.4177 35.0419C10.2116 35.0009 10.0223 34.8998 9.8737 34.7512C9.72511 34.6026 9.62391 34.4132 9.58292 34.2071C9.54192 34.001 9.56296 33.7874 9.64338 33.5933C9.7238 33.3991 9.85998 33.2332 10.0347 33.1164C10.2094 32.9997 10.4149 32.9374 10.625 32.9374C10.9068 32.9374 11.177 33.0493 11.3763 33.2486C11.5756 33.4478 11.6875 33.7181 11.6875 33.9999ZM58.4375 33.9999C58.4375 34.21 58.3752 34.4154 58.2584 34.5902C58.1417 34.7649 57.9757 34.9011 57.7816 34.9815C57.5875 35.0619 57.3738 35.0829 57.1677 35.0419C56.9616 35.0009 56.7723 34.8998 56.6237 34.7512C56.4751 34.6026 56.3739 34.4132 56.3329 34.2071C56.2919 34.001 56.313 33.7874 56.3934 33.5933C56.4738 33.3991 56.61 33.2332 56.7847 33.1164C56.9594 32.9997 57.1649 32.9374 57.375 32.9374C57.6568 32.9374 57.927 33.0493 58.1263 33.2486C58.3256 33.4478 58.4375 33.7181 58.4375 33.9999ZM58.4375 19.1249C58.4375 18.9147 58.4998 18.7093 58.6166 18.5346C58.7333 18.3598 58.8993 18.2237 59.0934 18.1432C59.2875 18.0628 59.5012 18.0418 59.7073 18.0828C59.9134 18.1238 60.1027 18.225 60.2513 18.3736C60.3999 18.5222 60.5011 18.7115 60.5421 18.9176C60.5831 19.1237 60.562 19.3373 60.4816 19.5315C60.4012 19.7256 60.265 19.8916 60.0903 20.0083C59.9156 20.125 59.7101 20.1874 59.5 20.1874C59.2182 20.1874 58.948 20.0754 58.7487 19.8762C58.5494 19.6769 58.4375 19.4067 58.4375 19.1249ZM45.6875 63.7499V64.8124H22.3125V63.7499C22.3125 63.4681 22.4244 63.1978 22.6237 62.9986C22.823 62.7993 23.0932 62.6874 23.375 62.6874H44.625C44.9068 62.6874 45.177 62.7993 45.3763 62.9986C45.5756 63.1978 45.6875 63.4681 45.6875 63.7499ZM41.2962 60.5624H26.7038L27.5007 54.1874H40.4993L41.2962 60.5624ZM60.5625 52.0624H7.4375C6.31033 52.0624 5.22933 51.6146 4.4323 50.8176C3.63527 50.0205 3.1875 48.9395 3.1875 47.8124V41.4374H64.8125V47.8124C64.8125 48.9395 64.3647 50.0205 63.5677 50.8176C62.7707 51.6146 61.6897 52.0624 60.5625 52.0624Z" fill="#80342C"/>
<path d="M24.4375 22.3125C24.4375 24.8486 25.445 27.2809 27.2383 29.0742C29.0316 30.8675 31.4639 31.875 34 31.875C36.5361 31.875 38.9684 30.8675 40.7617 29.0742C42.555 27.2809 43.5625 24.8486 43.5625 22.3125V15.9375C43.5625 13.4014 42.555 10.9691 40.7617 9.17579C38.9684 7.38247 36.5361 6.375 34 6.375C31.4639 6.375 29.0316 7.38247 27.2383 9.17579C25.445 10.9691 24.4375 13.4014 24.4375 15.9375H26.5625C26.5625 13.965 27.3461 12.0732 28.7409 10.6784C30.1357 9.28359 32.0275 8.5 34 8.5C35.9725 8.5 37.8643 9.28359 39.2591 10.6784C40.6539 12.0732 41.4375 13.965 41.4375 15.9375V22.3125C41.4375 24.285 40.6539 26.1768 39.2591 27.5716C37.8643 28.9664 35.9725 29.75 34 29.75C32.0275 29.75 30.1357 28.9664 28.7409 27.5716C27.3461 26.1768 26.5625 24.285 26.5625 22.3125H24.4375Z" fill="#80342C"/>
<path d="M38.25 15.9375H40.375C40.3733 14.2473 39.7011 12.6267 38.5059 11.4316C37.3108 10.2364 35.6902 9.56419 34 9.5625V11.6875C35.1272 11.6875 36.2082 12.1353 37.0052 12.9323C37.8022 13.7293 38.25 14.8103 38.25 15.9375Z" fill="#80342C"/>
<path d="M27.625 15.9375V22.3125C27.625 24.0033 28.2966 25.6248 29.4922 26.8203C30.6877 28.0159 32.3092 28.6875 34 28.6875C35.6908 28.6875 37.3123 28.0159 38.5078 26.8203C39.7034 25.6248 40.375 24.0033 40.375 22.3125H38.25C38.25 23.4397 37.8022 24.5207 37.0052 25.3177C36.2082 26.1147 35.1272 26.5625 34 26.5625C32.8728 26.5625 31.7918 26.1147 30.9948 25.3177C30.1978 24.5207 29.75 23.4397 29.75 22.3125V15.9375H27.625Z" fill="#80342C"/>
<path d="M34 23.375C33.7182 23.375 33.448 23.2631 33.2487 23.0638C33.0494 22.8645 32.9375 22.5943 32.9375 22.3125H30.8125C30.8125 23.1579 31.1483 23.9686 31.7461 24.5664C32.3439 25.1642 33.1546 25.5 34 25.5C34.8454 25.5 35.6561 25.1642 36.2539 24.5664C36.8517 23.9686 37.1875 23.1579 37.1875 22.3125V15.9375C37.1875 15.0921 36.8517 14.2814 36.2539 13.6836C35.6561 13.0858 34.8454 12.75 34 12.75C33.1546 12.75 32.3439 13.0858 31.7461 13.6836C31.1483 14.2814 30.8125 15.0921 30.8125 15.9375H32.9375C32.9375 15.6557 33.0494 15.3855 33.2487 15.1862C33.448 14.9869 33.7182 14.875 34 14.875C34.2818 14.875 34.552 14.9869 34.7513 15.1862C34.9506 15.3855 35.0625 15.6557 35.0625 15.9375V22.3125C35.0625 22.5943 34.9506 22.8645 34.7513 23.0638C34.552 23.2631 34.2818 23.375 34 23.375Z" fill="#80342C"/>
<!-- </g> -->
<!-- <defs>
<clipPath id="clip0_48_201">
<rect width="78" height="78" fill="white"/>
</clipPath>
</defs> -->
</svg>
