<svg width="74" height="74" viewBox="0 0 74 74" fill="none" xmlns="http://www.w3.org/2000/svg">
<g clip-path="url(#clip0_48_105)">
<path d="M58.7404 18.0055V18.2236C58.7404 18.8223 59.2256 19.3076 59.8243 19.3076C60.4231 19.3076 60.9083 18.8223 60.9083 18.2236V18.0055C60.9083 17.2405 60.6373 16.4972 60.1452 15.9124C59.7597 15.4545 59.076 15.3954 58.6179 15.7809C58.1599 16.1664 58.1011 16.8501 58.4866 17.3083C58.6022 17.446 58.7404 17.6787 58.7404 18.0055Z" fill="#80342C"/>
<path d="M59.8245 26.1006C59.2257 26.1006 58.7405 26.5859 58.7405 27.1846V28.9189C58.7405 29.5176 59.2257 30.0029 59.8245 30.0029C60.4233 30.0029 60.9084 29.5176 60.9084 28.9189V27.1846C60.9084 26.5859 60.4233 26.1006 59.8245 26.1006Z" fill="#80342C"/>
<path d="M60.9084 21.8369C60.9084 21.2383 60.4233 20.7529 59.8245 20.7529C59.2257 20.7529 58.7405 21.2383 58.7405 21.8369V23.5713C58.7405 24.1699 59.2257 24.6553 59.8245 24.6553C60.4233 24.6553 60.9084 24.1699 60.9084 23.5713V21.8369Z" fill="#80342C"/>
<path d="M42.2031 66.9751H40.4688C39.87 66.9751 39.3848 67.4604 39.3848 68.0591C39.3848 68.6577 39.87 69.1431 40.4688 69.1431H42.2031C42.8019 69.1431 43.2871 68.6577 43.2871 68.0591C43.2871 67.4604 42.8019 66.9751 42.2031 66.9751Z" fill="#80342C"/>
<path d="M36.8555 66.9751H35.1211C34.5224 66.9751 34.0371 67.4604 34.0371 68.0591C34.0371 68.6577 34.5224 69.1431 35.1211 69.1431H36.8555C37.4543 69.1431 37.9395 68.6577 37.9395 68.0591C37.9395 67.4604 37.4543 66.9751 36.8555 66.9751Z" fill="#80342C"/>
<path d="M31.5078 66.9751H29.7734C29.1748 66.9751 28.6895 67.4604 28.6895 68.0591C28.6895 68.6577 29.1748 69.1431 29.7734 69.1431H31.5078C32.1065 69.1431 32.5918 68.6577 32.5918 68.0591C32.5918 67.4604 32.1065 66.9751 31.5078 66.9751Z" fill="#80342C"/>
<path d="M26.1602 66.9751H24.4258C23.8271 66.9751 23.3418 67.4604 23.3418 68.0591C23.3418 68.6577 23.8271 69.1431 24.4258 69.1431H26.1602C26.7588 69.1431 27.2441 68.6577 27.2441 68.0591C27.2441 67.4604 26.7588 66.9751 26.1602 66.9751Z" fill="#80342C"/>
<path d="M21.2611 66.8888C20.9929 66.7745 20.7787 66.5531 20.6737 66.2812C20.4577 65.7227 19.83 65.4454 19.2718 65.661C18.7135 65.877 18.4357 66.5045 18.6516 67.063C18.9664 67.8773 19.6077 68.5407 20.411 68.8831C20.5496 68.9422 20.6938 68.9702 20.8356 68.9702C21.2569 68.9702 21.6577 68.7231 21.8333 68.311C22.068 67.7602 21.8119 67.1235 21.2611 66.8888Z" fill="#80342C"/>
<path d="M19.5176 64.1611C20.1162 64.1611 20.6016 63.6758 20.6016 63.0771V61.3428C20.6016 60.7441 20.1162 60.2588 19.5176 60.2588C18.9189 60.2588 18.4336 60.7441 18.4336 61.3428V63.0771C18.4336 63.6759 18.9189 64.1611 19.5176 64.1611Z" fill="#80342C"/>
<path d="M24.4572 24.8945H9.42334C8.82469 24.8945 8.33936 25.3799 8.33936 25.9785C8.33936 26.5772 8.82469 27.0625 9.42334 27.0625H24.4572C25.0558 27.0625 25.5412 26.5772 25.5412 25.9785C25.5412 25.3799 25.0558 24.8945 24.4572 24.8945Z" fill="#80342C"/>
<path d="M24.4572 30.1465H9.42334C8.82469 30.1465 8.33936 30.6318 8.33936 31.2305C8.33936 31.8291 8.82469 32.3145 9.42334 32.3145H24.4572C25.0558 32.3145 25.5412 31.8291 25.5412 31.2305C25.5412 30.6318 25.0558 30.1465 24.4572 30.1465Z" fill="#80342C"/>
<path d="M24.4572 35.3745H9.42334C8.82469 35.3745 8.33936 35.8598 8.33936 36.4585C8.33936 37.0571 8.82469 37.5425 9.42334 37.5425H24.4572C25.0558 37.5425 25.5412 37.0571 25.5412 36.4585C25.5412 35.8598 25.0558 35.3745 24.4572 35.3745Z" fill="#80342C"/>
<path d="M25.5412 41.7339C25.5412 41.1352 25.0558 40.6499 24.4572 40.6499H9.42334C8.82469 40.6499 8.33936 41.1352 8.33936 41.7339C8.33936 42.3325 8.82469 42.8179 9.42334 42.8179H24.4572C25.0558 42.8179 25.5412 42.3325 25.5412 41.7339Z" fill="#80342C"/>
<path d="M9.42334 45.9019C8.82469 45.9019 8.33936 46.3872 8.33936 46.9858C8.33936 47.5845 8.82469 48.0698 9.42334 48.0698H16.1627C16.7613 48.0698 17.2467 47.5845 17.2467 46.9858C17.2467 46.3872 16.7613 45.9019 16.1627 45.9019H9.42334Z" fill="#80342C"/>
<path d="M31.4628 57.1973C31.6744 57.4089 31.9519 57.5148 32.2293 57.5148C32.5066 57.5148 32.7841 57.409 32.9957 57.1973L37.3714 52.8216C37.7947 52.3983 37.7947 51.7119 37.3714 51.2887C36.9479 50.8654 36.2617 50.8654 35.8385 51.2887L32.2293 54.8979L29.6985 52.3672C29.2752 51.9439 28.5888 51.9439 28.1656 52.3672C27.7423 52.7905 27.7423 53.4769 28.1656 53.9001L31.4628 57.1973Z" fill="#80342C"/>
<path d="M48.7079 28.3199C49.7153 27.5313 50.626 26.6206 51.4148 25.6128C52.0087 24.8539 51.9406 23.7655 51.2564 23.0813L49.2805 21.1056C49.5395 20.5928 49.7608 20.0583 49.9402 19.512H52.7357C53.7035 19.512 54.5212 18.7908 54.6376 17.8343C54.6743 17.5321 54.7019 17.2271 54.7211 16.9217H55.9336C56.5324 16.9217 57.0176 16.4364 57.0176 15.8377C57.0176 15.2391 56.5324 14.7537 55.9336 14.7537H54.709C54.6905 14.5033 54.6679 14.2534 54.6379 14.0053C54.5214 13.0488 53.7038 12.3276 52.736 12.3276H49.9405C49.7612 11.7816 49.54 11.2471 49.2808 10.734L51.2567 8.75814C51.9409 8.07379 52.009 6.98547 51.4151 6.22668C50.6264 5.21915 49.7156 4.30846 48.7082 3.51975C47.9493 2.92558 46.8609 2.99337 46.1767 3.67801L44.2007 5.65376C43.6882 5.39476 43.1537 5.17348 42.6072 4.99411V2.19859C42.6072 1.23081 41.886 0.413053 40.9297 0.296705C39.6654 0.142635 38.3651 0.142635 37.1006 0.296705C36.1441 0.413197 35.4229 1.23067 35.4229 2.19859V4.99397C34.8765 5.17333 34.3419 5.39461 33.8293 5.65376L31.8535 3.67801C31.1692 2.99351 30.0807 2.92544 29.3221 3.51946C28.3144 4.30817 27.4037 5.21886 26.6151 6.22639C26.021 6.98532 26.089 8.07364 26.7734 8.758L28.7491 10.7337C28.4901 11.2464 28.2687 11.7812 28.0894 12.3273H25.294C24.3262 12.3273 23.5086 13.0486 23.3921 14.0049C23.3619 14.2529 23.3392 14.5028 23.3208 14.7534H8.11933C7.44379 14.7534 6.80858 15.0165 6.33076 15.4943L0.740723 21.0846C0.263047 21.5623 0 22.1974 0 22.8731V54.1116C0 55.5062 1.13471 56.6409 2.5293 56.6409H18.4335V57.7297C18.4335 58.3283 18.9188 58.8137 19.5175 58.8137C20.1161 58.8137 20.6015 58.3283 20.6015 57.7297V56.6409H23.5611C24.7005 60.654 28.3955 63.603 32.7687 63.603C38.047 63.603 42.341 59.3088 42.341 54.0307C42.341 49.1288 38.6365 45.078 33.8804 44.525V39.6014C33.8804 39.0028 33.3951 38.5174 32.7965 38.5174C32.1978 38.5174 31.7125 39.0028 31.7125 39.6014V44.5179C26.9295 45.0455 23.1963 49.1095 23.1963 54.0307C23.1963 54.179 23.2007 54.3262 23.2075 54.4731H2.5293C2.33013 54.4731 2.16797 54.3109 2.16797 54.1118V22.8731C2.16797 22.778 2.20656 22.6849 2.27377 22.6175L7.8638 17.0275C7.93216 16.9593 8.02279 16.9217 8.11933 16.9217H23.308C23.3273 17.2272 23.3549 17.5322 23.3917 17.8343C23.5082 18.7908 24.3256 19.512 25.2935 19.512H28.0889C28.2683 20.0583 28.4896 20.5929 28.7487 21.1056L26.773 23.0813C26.0886 23.7655 26.0204 24.854 26.6146 25.6129C27.4034 26.6206 28.3141 27.5313 29.3215 28.3199C30.0303 28.8746 31.0265 28.8515 31.7123 28.2884V34.5427C31.7123 35.1413 32.1977 35.6266 32.7963 35.6266C33.395 35.6266 33.8803 35.1413 33.8803 34.5427V26.2106C34.3775 26.4587 34.8943 26.6721 35.4223 26.8454V29.6407C35.4223 30.6085 36.1435 31.4263 37.1 31.5428C37.7323 31.6197 38.3767 31.6587 39.0145 31.6587C39.6524 31.6587 40.2966 31.6197 40.9289 31.5426C41.8854 31.4263 42.6067 30.6085 42.6067 29.6407V26.8454C43.153 26.666 43.6876 26.4447 44.2003 26.1857L46.176 28.1615C46.8608 28.8457 47.9488 28.9137 48.7079 28.3199ZM32.7687 46.6261C36.8516 46.6261 40.173 49.9477 40.173 54.0304C40.173 58.1131 36.8514 61.4347 32.7687 61.4347C28.686 61.4347 25.3644 58.1131 25.3644 54.0304C25.3644 49.9477 28.6858 46.6261 32.7687 46.6261ZM43.3504 24.1848C42.8535 24.4457 42.3296 24.6627 41.7929 24.8294C40.983 25.0814 40.439 25.8169 40.439 26.6598V29.4163C39.495 29.515 38.5348 29.515 37.5906 29.4163V26.6598C37.5906 25.8169 37.0464 25.0814 36.2363 24.8293C35.6998 24.6625 35.1757 24.4457 34.679 24.1847C33.928 23.7903 33.0229 23.9255 32.4269 24.5214L30.4786 26.4697C29.7395 25.8708 29.0635 25.1948 28.4644 24.4555L30.4126 22.5073C31.0086 21.9112 31.1439 21.0063 30.7495 20.2553C30.4886 19.7586 30.2716 19.2346 30.1047 18.6978C29.8528 17.8879 29.1171 17.3437 28.2744 17.3437H25.5179C25.4686 16.8718 25.4436 16.3937 25.4436 15.9195C25.4436 15.4453 25.4686 14.9673 25.5179 14.4953H28.2744C29.1173 14.4953 29.8528 13.9512 30.1047 13.1412C30.2716 12.6046 30.4886 12.0805 30.7493 11.5839C31.1439 10.8327 31.0085 9.92783 30.4126 9.33179L28.4644 7.38351C29.0634 6.64437 29.7393 5.96826 30.4786 5.36932L32.4269 7.31745C33.0228 7.91336 33.9277 8.04878 34.679 7.65436C35.1757 7.39348 35.6998 7.17654 36.2363 7.0096C37.0462 6.75783 37.5906 6.02217 37.5906 5.17926V2.4229C38.5342 2.32419 39.495 2.32419 40.439 2.4229V5.1794C40.439 6.02246 40.9833 6.75797 41.7929 7.00975C42.3297 7.17668 42.8538 7.39362 43.3504 7.6545C44.1015 8.04893 45.0067 7.9135 45.6024 7.3176L47.5508 5.36961C48.2899 5.96854 48.966 6.64452 49.565 7.38379L47.6168 9.33208C47.6167 9.33208 47.6167 9.33208 47.6167 9.33208C47.0206 9.92812 46.8854 10.8332 47.2799 11.584C47.5411 12.0812 47.758 12.6053 47.9247 13.1413C48.1763 13.9514 48.912 14.4957 49.755 14.4957H52.5115C52.561 14.9681 52.586 15.4462 52.586 15.92C52.586 16.3937 52.561 16.8718 52.5115 17.3442H49.7549C48.9117 17.3442 48.1762 17.8885 47.9247 18.6983C47.7578 19.2348 47.5408 19.7588 47.2801 20.2556C46.8854 21.0066 47.0206 21.9116 47.6165 22.5078L49.5648 24.4561C48.9657 25.1954 48.2898 25.8714 47.5506 26.4703L45.6025 24.522C45.0066 23.9257 44.1017 23.7904 43.3504 24.1848Z" fill="#80342C"/>
<path d="M44.5827 12.2677C44.0355 12.5105 43.7888 13.151 44.0316 13.6982C44.3435 14.401 44.5017 15.1484 44.5017 15.9195C44.5017 18.9449 42.0403 21.4063 39.0147 21.4063C35.9892 21.4063 33.5278 18.9449 33.5278 15.9195C33.5278 12.894 35.9892 10.4326 39.0147 10.4326C39.6841 10.4326 40.3402 10.553 40.9645 10.7905C41.5239 11.0028 42.1501 10.7223 42.363 10.1626C42.5759 9.60301 42.2948 8.9769 41.7352 8.76415C40.8638 8.43274 39.9485 8.26465 39.0147 8.26465C34.7938 8.26465 31.3599 11.6986 31.3599 15.9195C31.3599 20.1403 34.7938 23.5743 39.0147 23.5743C43.2356 23.5743 46.6696 20.1403 46.6696 15.9195C46.6696 14.8436 46.4488 13.8003 46.0133 12.8188C45.7705 12.2716 45.1298 12.0251 44.5827 12.2677Z" fill="#80342C"/>
<path d="M39.0147 12.5542C37.159 12.5542 35.6494 14.0638 35.6494 15.9195C35.6494 17.7751 37.159 19.2847 39.0147 19.2847C40.8703 19.2847 42.3799 17.7751 42.3799 15.9195C42.3799 14.0638 40.8703 12.5542 39.0147 12.5542ZM39.0147 17.1168C38.3545 17.1168 37.8174 16.5797 37.8174 15.9195C37.8174 15.2592 38.3545 14.7222 39.0147 14.7222C39.6749 14.7222 40.212 15.2592 40.212 15.9195C40.212 16.5797 39.675 17.1168 39.0147 17.1168Z" fill="#80342C"/>
<path d="M72.1934 46.4328C73.1896 46.4328 74 45.6224 74 44.6262V36.7203C74 35.7241 73.1896 34.9137 72.1934 34.9137H60.6926C60.8276 34.733 60.9084 34.5094 60.9084 34.2666V32.5322C60.9084 31.9336 60.4232 31.4482 59.8244 31.4482C59.2256 31.4482 58.7404 31.9336 58.7404 32.5322V34.2666C58.7404 34.5094 58.8212 34.733 58.9562 34.9137H47.4554C46.4591 34.9137 45.6487 35.7241 45.6487 36.7203V44.6262C45.6487 45.6224 46.4591 46.4328 47.4554 46.4328H58.7404V48.6064H47.4554C46.4591 48.6064 45.6487 49.4168 45.6487 50.4131V58.3189C45.6487 59.3152 46.4591 60.1256 47.4554 60.1256H58.7404V62.2993H47.4554C46.4591 62.2993 45.6487 63.1097 45.6487 64.1059V66.9892C45.1299 67.07 44.7324 67.5175 44.7324 68.0589C44.7324 68.6003 45.1299 69.0478 45.6487 69.1285V72.0118C45.6487 73.0081 46.4591 73.8184 47.4554 73.8184H72.1934C73.1896 73.8184 74 73.0081 74 72.0118V64.1059C74 63.1097 73.1896 62.2993 72.1934 62.2993H60.9084V60.1256H63.7383C64.3371 60.1256 64.8223 59.6402 64.8223 59.0416C64.8223 58.4429 64.3371 57.9576 63.7383 57.9576H47.8167V50.7744H71.832V57.9576H68.7969C68.1981 57.9576 67.7129 58.4429 67.7129 59.0416C67.7129 59.6402 68.1981 60.1256 68.7969 60.1256H72.1934C73.1896 60.1256 74 59.3152 74 58.3189V50.4131C74 49.4168 73.1896 48.6064 72.1934 48.6064H60.9084V46.4328H72.1934ZM71.832 64.4673V71.6505H47.8167V64.4673H71.832ZM47.8167 44.2648V37.0816H71.832V44.2648H47.8167Z" fill="#80342C"/>
<path d="M67.773 39.5894H51.876C51.2772 39.5894 50.792 40.0747 50.792 40.6733C50.792 41.272 51.2772 41.7573 51.876 41.7573H67.773C68.3718 41.7573 68.857 41.272 68.857 40.6733C68.857 40.0747 68.3718 39.5894 67.773 39.5894Z" fill="#80342C"/>
<path d="M68.857 54.3662C68.857 53.7676 68.3718 53.2822 67.773 53.2822H51.876C51.2772 53.2822 50.792 53.7676 50.792 54.3662C50.792 54.9649 51.2772 55.4502 51.876 55.4502H67.773C68.3718 55.4502 68.857 54.9649 68.857 54.3662Z" fill="#80342C"/>
<path d="M51.876 69.1431H67.773C68.3718 69.1431 68.857 68.6577 68.857 68.0591C68.857 67.4604 68.3718 66.9751 67.773 66.9751H51.876C51.2772 66.9751 50.792 67.4604 50.792 68.0591C50.792 68.6577 51.2772 69.1431 51.876 69.1431Z" fill="#80342C"/>
</g>
<defs>
<clipPath id="clip0_48_105">
<rect width="74" height="74" fill="white"/>
</clipPath>
</defs>
</svg>
