<svg width="72" height="72" viewBox="0 0 72 72" fill="none" xmlns="http://www.w3.org/2000/svg">
<path d="M57.375 54C57.375 52.5352 56.4311 51.2977 55.125 50.832V46.125H52.875V50.832C51.5689 51.2977 50.625 52.5352 50.625 54C50.625 55.8608 52.1392 57.375 54 57.375C54.5198 57.375 55.0057 57.2479 55.4456 57.0364L58.8296 60.4204L60.4204 58.8296L57.0364 55.4456C57.2479 55.0057 57.375 54.5197 57.375 54ZM52.875 54C52.875 53.379 53.379 52.875 54 52.875C54.621 52.875 55.125 53.379 55.125 54C55.125 54.621 54.621 55.125 54 55.125C53.379 55.125 52.875 54.621 52.875 54Z" fill="#80342C"/>
<path d="M54 43.875C54.6213 43.875 55.125 43.3713 55.125 42.75C55.125 42.1287 54.6213 41.625 54 41.625C53.3787 41.625 52.875 42.1287 52.875 42.75C52.875 43.3713 53.3787 43.875 54 43.875Z" fill="#80342C"/>
<path d="M45.3297 45.3294C44.8898 45.7693 44.8898 46.4814 45.3297 46.9202C45.7695 47.36 46.4817 47.36 46.9204 46.9202C47.3603 46.4803 47.3603 45.7682 46.9204 45.3294C46.4817 44.8895 45.7684 44.8895 45.3297 45.3294Z" fill="#80342C"/>
<path d="M42.75 55.125C43.3713 55.125 43.875 54.6213 43.875 54C43.875 53.3787 43.3713 52.875 42.75 52.875C42.1287 52.875 41.625 53.3787 41.625 54C41.625 54.6213 42.1287 55.125 42.75 55.125Z" fill="#80342C"/>
<path d="M45.3297 61.0794C44.8898 61.5193 44.8898 62.2314 45.3297 62.6702C45.7695 63.11 46.4817 63.11 46.9204 62.6702C47.3603 62.2303 47.3603 61.5182 46.9204 61.0794C46.4817 60.6395 45.7684 60.6395 45.3297 61.0794Z" fill="#80342C"/>
<path d="M54 66.375C54.6213 66.375 55.125 65.8713 55.125 65.25C55.125 64.6287 54.6213 64.125 54 64.125C53.3787 64.125 52.875 64.6287 52.875 65.25C52.875 65.8713 53.3787 66.375 54 66.375Z" fill="#80342C"/>
<path d="M61.0797 61.0794C60.6398 61.5193 60.6398 62.2314 61.0797 62.6702C61.5195 63.11 62.2317 63.11 62.6704 62.6702C63.1103 62.2303 63.1103 61.5182 62.6704 61.0794C62.2317 60.6395 61.5184 60.6395 61.0797 61.0794Z" fill="#80342C"/>
<path d="M65.25 55.125C65.8713 55.125 66.375 54.6213 66.375 54C66.375 53.3787 65.8713 52.875 65.25 52.875C64.6287 52.875 64.125 53.3787 64.125 54C64.125 54.6213 64.6287 55.125 65.25 55.125Z" fill="#80342C"/>
<path d="M61.0797 45.3294C60.6398 45.7693 60.6398 46.4814 61.0797 46.9202C61.5195 47.36 62.2317 47.36 62.6704 46.9202C63.1103 46.4803 63.1103 45.7682 62.6704 45.3294C62.2317 44.8895 61.5184 44.8895 61.0797 45.3294Z" fill="#80342C"/>
<path d="M64.125 12.375V5.625H19.125V12.375H64.125ZM21.375 7.875H61.875V10.125H21.375V7.875Z" fill="#80342C"/>
<path d="M68.625 45.6165V4.5C68.625 2.63925 67.1107 1.125 65.25 1.125H17.5106L1.125 18.6795V51.75C1.125 53.6107 2.63925 55.125 4.5 55.125H37.1824C37.7651 63.9056 45.0742 70.875 54 70.875C63.3049 70.875 70.875 63.3049 70.875 54C70.875 50.9479 70.0481 48.0904 68.625 45.6165ZM66.375 4.5V42.5655C65.6876 41.8219 64.935 41.1424 64.125 40.5315V14.625H15.7298L18.855 3.375H65.25C65.871 3.375 66.375 3.88013 66.375 4.5ZM61.875 25.875H52.875V16.875H61.875V25.875ZM50.625 25.875H41.625V16.875H50.625V25.875ZM50.625 37.125H41.625V28.125H50.625V37.125ZM7.875 28.125H16.875V37.125H7.875V28.125ZM19.125 28.125H28.125V37.125H19.125V28.125ZM30.375 28.125H39.375V37.125H30.375V28.125ZM39.375 25.875H30.375V16.875H39.375V25.875ZM28.125 25.875H19.125V16.875H28.125V25.875ZM16.875 25.875H7.875V18.207C9.18112 18.6728 10.125 19.9102 10.125 21.375V23.625H13.23L15.1054 16.875H16.875V25.875ZM12.0465 19.4794C11.286 17.361 9.28463 15.8378 6.92438 15.7635L15.6848 6.37762L12.0465 19.4794ZM7.875 39.375H16.875V48.375H7.875V39.375ZM19.125 39.375H28.125V48.375H19.125V39.375ZM30.375 39.375H39.375V45.6165C38.8721 46.4895 38.4514 47.412 38.1094 48.375H30.375V39.375ZM41.625 39.375H45.6165C44.127 40.2323 42.7849 41.3111 41.625 42.5655V39.375ZM52.875 28.125H61.875V39.0859C59.5215 37.8382 56.844 37.125 54 37.125C53.6198 37.125 53.2485 37.1576 52.875 37.1824V28.125ZM3.375 51.75V21.375C3.375 19.9102 4.31888 18.6728 5.625 18.207V50.625H37.4647C37.3151 51.3574 37.2319 52.1123 37.1812 52.875H4.5C3.879 52.875 3.375 52.371 3.375 51.75ZM54 68.625C45.936 68.625 39.375 62.064 39.375 54C39.375 45.936 45.936 39.375 54 39.375C62.064 39.375 68.625 45.936 68.625 54C68.625 62.064 62.064 68.625 54 68.625Z" fill="#80342C"/>
<path d="M61.5453 31.1703L59.9546 29.5796L56.25 33.2842L54.7953 31.8296L53.2046 33.4203L56.25 36.4657L61.5453 31.1703Z" fill="#80342C"/>
<path d="M22.5 25.2157L27.7953 19.9203L26.2046 18.3296L22.5 22.0342L21.0453 20.5796L19.4546 22.1703L22.5 25.2157Z" fill="#80342C"/>
<path d="M39.0453 42.4203L37.4546 40.8296L33.75 44.5342L32.2953 43.0796L30.7046 44.6703L33.75 47.7157L39.0453 42.4203Z" fill="#80342C"/>
</svg>
